<svg xmlns="http://www.w3.org/2000/svg" aria-hidden="true" style="width:0;height:0;position:absolute;overflow:hidden"><defs><symbol id="icon-menu" viewBox="0 0 32 32"><path d="M0 2h32v4H0zm0 6h32v4H0zm0 6h32v4H0zm0 6h32v4H0zm0 6h32v4H0z"/></symbol><symbol id="icon-cross" viewBox="0 0 32 32"><path d="M31.708 25.708 22 16l9.708-9.708a1 1 0 0 0 0-1.414L27.122.292a1 1 0 0 0-1.414-.001L16 9.999 6.292.291a.998.998 0 0 0-1.414.001L.292 4.878a1 1 0 0 0 0 1.414L10 16 .292 25.708a.999.999 0 0 0 0 1.414l4.586 4.586a1 1 0 0 0 1.414 0L16 22l9.708 9.708a1 1 0 0 0 1.414 0l4.586-4.586a.999.999 0 0 0 0-1.414z"/></symbol><symbol id="icon-naturalness" viewBox="0 0 30 32"><path d="M22.912.975c-.14.042-.611.295-1.088.575-.589.351-1.628 1.263-1.895 1.67a4.654 4.654 0 0 1-.218.316c-.533.702-.821 2.211-.632 3.235.098.519.484 1.326.779 1.628.197.204.351.295.351.197 0-.021.084-.309.182-.646.098-.344.288-.997.421-1.46s.274-.905.309-.982c.028-.077.084-.239.112-.351.035-.133.063-.168.077-.091.028.098-.035.547-.267 1.986-.168 1.06-.168 1.025-.021.975a2.34 2.34 0 0 0 .323-.182c.098-.07.211-.126.253-.126.035 0 .267-.197.519-.442.681-.653 1.06-1.474 1.151-2.526.042-.547-.105-3.846-.175-3.832-.021.007-.105.028-.182.056z"/><path d="M13.403 3.628c-1.025.056-3.074.547-4.035.968-.112.049-.4.175-.632.274a6.787 6.787 0 0 0-.597.295 2.28 2.28 0 0 1-.295.147c-.07.021-.126.063-.126.098s-.049.063-.105.063c-.175 0-1.495.912-2.056 1.425-.477.435-1.382 1.354-1.558 1.579-.098.126-.246.316-.337.421-.309.365-.772 1.116-1.123 1.811-.309.618-.47.996-.828 1.951-.211.547-.519 1.993-.625 2.87a14.383 14.383 0 0 0 .204 4.618c.126.582.54 1.923.723 2.309.063.133.182.4.26.596.295.702.961 1.789 1.677 2.737.175.232 1.909 1.979 2.119 2.14 1.165.87 1.312.968 2.351 1.516.568.302 2 .884 2.491 1.011.119.035.386.105.597.161.407.105.849.197 1.649.337.996.175 3.67.091 4.667-.147.133-.035.47-.112.737-.175 1.27-.295 2.021-.596 3.663-1.467.197-.105.4-.239.449-.295.042-.056.119-.098.168-.098s.126-.049.175-.105c.042-.056.225-.197.393-.309 1.137-.751 2.596-2.295 3.523-3.726.358-.554 1.277-2.309 1.277-2.442 0-.035.084-.26.182-.505.316-.786.547-1.768.702-3.018a13.591 13.591 0 0 0-.611-5.86c-.323-.961-.533-1.368-.793-1.509-.33-.168-.365-.014-.154.681 1.032 3.396 1.172 5.628.526 8.372-.246 1.039-.912 2.695-1.418 3.544a20.102 20.102 0 0 1-.961 1.46c-.154.197-.358.456-.442.568-.281.372-1.34 1.411-1.839 1.811-.618.484-1.207.898-1.291.898-.035 0-.077.021-.091.049-.035.098-1.375.793-1.916 1.003-.077.028-.309.119-.519.203-.203.084-.421.147-.47.147a.616.616 0 0 0-.225.063c-.147.084-1.13.316-1.839.435-.702.119-3.249.119-3.895 0-.758-.147-1.916-.428-2.239-.547-1.284-.477-2.568-1.074-2.779-1.284a1.348 1.348 0 0 0-.218-.126c-.253-.133-1.284-.919-1.312-.997a.104.104 0 0 0-.091-.07c-.056 0-.463-.351-.975-.842a8.638 8.638 0 0 1-.491-.561c-.175-.211-.33-.4-.351-.421-.126-.112-.716-.94-.947-1.333a30.659 30.659 0 0 0-.421-.702c-.386-.625-1.053-2.358-1.228-3.193a61.947 61.947 0 0 0-.14-.632c-.161-.709-.288-2.344-.246-3.158.105-1.951.632-4.147 1.305-5.439.112-.211.204-.414.204-.442 0-.126.568-1.011 1.088-1.698.554-.737 1.993-2.168 2.526-2.519.112-.077.267-.189.33-.253.07-.063.218-.161.323-.218s.204-.112.225-.133c.14-.161 1.446-.821 2.211-1.123.723-.288.912-.351 1.025-.351.07 0 .14-.028.161-.063s.14-.077.267-.098a6.29 6.29 0 0 0 .512-.112 19.695 19.695 0 0 1 2.772-.498c.407-.042.786-.091.842-.105.133-.021-1.593-.014-2.105.014z"/><path d="M27.895 5.839c-.309.028-.772.091-1.039.126-.26.042-.688.07-.954.07-.744 0-1.193.105-1.937.456-.933.442-1.537 1.439-1.628 2.681l-.042.512h.288c.372 0 1.116-.161 1.811-.386.604-.197.765-.267 1.607-.667a9.9 9.9 0 0 1 .772-.351l.203-.077-.133.154c-.133.147-.66.554-1.137.884-.351.239-1.347.688-1.881.849a10.34 10.34 0 0 1-1.102.232c-.344.049-.618.105-.618.133 0 .07.288.428.491.611.526.47 1.726.589 2.779.267 1.193-.365 2.253-1.333 2.933-2.688.421-.835.758-1.754.947-2.625l.063-.267-.435.014c-.232 0-.681.035-.989.07zM17.347 7.902c-.218.147-.295.323-.821 1.789-.253.709-.589 1.635-.744 2.063-.316.891-.365 1.389-.133 1.509.182.098.358.042.547-.161.154-.161 1.256-2.933 1.593-3.986.211-.674.225-1.046.049-1.207-.161-.147-.288-.147-.491-.007zM12.372 8.632c-.126.07-.274.211-.337.309-.344.519-.456 1.635-.281 2.674.204 1.2.519 1.811 1.06 2.077.281.133.358.14.744.07.835-.147 1.179-.765 1.179-2.098 0-.898-.161-1.642-.505-2.33-.204-.4-.281-.477-.618-.646-.47-.239-.919-.26-1.242-.056zm.821.631c.351.189.919 2.919.744 3.607-.098.407-.73.084-.94-.484-.154-.414-.253-1.207-.26-2.091 0-.814.014-.912.133-1.004.168-.119.154-.119.323-.028zM9.207 9.102c-.47.232-.716.905-.723 1.965-.014 1.544.358 2.618 1.06 3.095.211.147.302.161.653.126.225-.021.491-.084.597-.14.625-.323.926-1.586.688-2.87-.239-1.242-.561-1.846-1.137-2.119-.428-.204-.807-.225-1.137-.056zm1.032 1.109c.344.87.646 2.961.47 3.249-.105.175-.442.091-.667-.161-.337-.386-.505-1.2-.526-2.498-.007-.905.049-1.067.372-1.032.147.014.211.091.351.442zM15.256 9.158c-.295.225-.407.519-.358.926.049.449.246.611.674.554.358-.049.547-.189.688-.519.203-.484-.126-1.137-.568-1.137a.8.8 0 0 0-.435.175zm.646.842c-.028.098-.077.161-.112.14-.084-.049-.091-.477-.021-.554.084-.084.182.218.133.414zM7.27 9.439c-.189.204-.954 1.656-.954 1.811 0 .26.393.182.639-.119l.119-.147.042.175c.021.098.098.709.182 1.368.175 1.418.225 1.649.463 1.93.182.211.449.274.646.147.14-.084.232-.568.154-.849-.035-.133-.175-.975-.309-1.86-.393-2.519-.379-2.463-.575-2.554-.232-.105-.218-.105-.407.098zM17.446 10.807c-.575.505-.463 1.474.168 1.474.596 0 .954-.393.898-.996-.07-.674-.582-.898-1.067-.477zm.659.625c0 .154-.028.302-.07.323-.042.028-.07-.084-.07-.274 0-.175.035-.323.07-.323.042 0 .07.126.07.274zM22.667 13.825c-.077.147-.007.716.246 2.105.288 1.523.33 1.902.246 2.105-.049.112-.063.239-.035.274.056.098.582.098 1.116 0 .596-.112.744-.175.744-.337 0-.211-.197-.281-.561-.218-.365.07-.421.021-.421-.365 0-.14-.028-.407-.07-.596a45.579 45.579 0 0 1-.211-1.27c-.218-1.453-.393-1.839-.821-1.839a.297.297 0 0 0-.232.14zM21.361 14.063c-.028.077-.133.112-.365.112-.407 0-.807.26-1.011.653-.337.66-.33 2.323.014 2.975.316.611 1.053.744 1.368.253.077-.126.161-.225.182-.232.028 0 .175.126.33.281.253.253.316.281.632.281.442 0 .491-.098.182-.421-.274-.288-.47-.947-.554-1.825-.098-1.144-.316-2.105-.463-2.105a.78.78 0 0 1-.161-.042c-.07-.028-.126 0-.154.07zm-.119 3.291c-.049.203-.119.358-.161.358-.035-.007-.126-.098-.203-.203-.126-.168-.14-.295-.14-1.249 0-1.179.028-1.34.26-1.593l.161-.168.084 1.242c.077 1.025.077 1.312 0 1.614zM18.386 14.435c-.098.021-.281.133-.407.253-.189.189-.239.204-.295.119a.429.429 0 0 1-.07-.161c0-.084-.477-.056-.54.035-.091.154-.042 1.165.105 2.232.218 1.509.582 2.407.912 2.203.098-.063.126-.203.14-.758.007-.372.042-.674.07-.674s.253.211.505.463c.463.47.695.618.87.547.379-.147-.091-.997-.87-1.586l-.246-.182.253-.274a2.63 2.63 0 0 0 .365-.477c.449-.912.014-1.874-.793-1.74zm.098.695c.021.063.042.309.042.561 0 .393-.021.477-.197.667-.119.133-.239.203-.281.175-.133-.077-.105-.975.035-1.27.126-.26.323-.33.4-.133zM13.018 15.137c-.491.056-1.516.33-1.586.421-.14.161.056.302.428.302h.337l.077.575c.042.323.126 1.053.189 1.621.14 1.361.33 1.874.667 1.874.161 0 .414-.358.414-.596 0-.105-.077-.73-.175-1.389-.091-.667-.182-1.446-.189-1.733l-.021-.519.33-.063c.386-.077.491-.232.267-.414-.147-.119-.281-.133-.737-.077zM15.874 15.382c-.112.112-.105.519.028 1.397.105.709.105 1.768-.007 2.049a.184.184 0 0 1-.204.105c-.225-.035-.435-.653-.561-1.705-.154-1.263-.232-1.565-.435-1.698-.14-.091-.189-.091-.281-.014-.197.161-.225.365-.161 1.046.204 2.077.414 2.667 1.025 2.87.232.077.316.077.533-.021.14-.056.295-.182.344-.281.098-.225.154-.225.393 0 .337.323.786.421.786.175 0-.077-.028-.154-.063-.175-.126-.084-.295-.73-.498-1.993-.26-1.551-.358-1.839-.625-1.839-.105 0-.225.035-.274.084zM10.316 15.789c0 .035-.112.07-.26.07-.309 0-.8.274-1.004.561-.421.589-.463 2.421-.077 3.144a.968.968 0 0 0 .856.505c.323 0 .351-.014.526-.295l.182-.288.239.281c.182.218.309.302.519.337.512.084.716-.091.414-.358-.309-.274-.547-1.13-.653-2.379-.063-.723-.189-1.312-.316-1.488-.112-.154-.428-.225-.428-.091zm-.127.779c.091.435.084 2.4-.007 2.681-.049.14-.112.26-.14.26s-.126-.154-.211-.337c-.147-.316-.161-.421-.133-1.354.021-.814.056-1.06.161-1.277.154-.309.26-.302.33.028zM7.432 16.26c-.014.161-.014.091.035.863l.049.667-.197-.218a18.224 18.224 0 0 1-.407-.484c-.337-.442-.646-.737-.765-.737-.225 0-.232.232-.07 1.509.091.695.197 1.523.232 1.839.105.884.316 1.193.744 1.116.33-.063.365-.239.211-1.158-.07-.407-.14-.828-.161-.94-.014-.105 0-.189.035-.189.126 0 .653.968.723 1.326.035.197.098.414.133.484.154.295.709.379.807.119.021-.056.007-.288-.028-.505a55.901 55.901 0 0 1-.281-1.846c-.07-.463-.105-.674-.253-1.382-.049-.274-.372-.582-.596-.582-.14 0-.204.035-.211.119zM24.379 20.168c-.203.203-.239.288-.239.582 0 .267.049.421.239.723.639 1.011.674 1.088.66 1.333-.014.189-.049.246-.161.246-.126 0-.175-.091-.288-.505-.028-.119-.218-.042-.253.105-.056.211.084.568.26.688.4.26 1.067-.119 1.137-.646.042-.344-.063-.575-.568-1.228-.421-.54-.604-.982-.463-1.151s.288-.126.372.105c.049.126.126.203.189.197.154-.035.161-.203 0-.463-.197-.323-.554-.316-.884.014zM22.891 20.225c-.049.049-.084.267-.084.484 0 .344-.021.4-.147.435-.189.049-.154.288.049.316.126.021.154.084.197.491.098.975.274 1.425.604 1.558.197.077.239.077.407-.049.232-.175.358-.414.316-.589-.049-.189-.147-.168-.203.042-.112.449-.344-.098-.421-.997-.042-.477-.035-.526.105-.625.211-.154.197-.337-.028-.295-.14.028-.182.007-.211-.126-.098-.484-.119-.561-.189-.639-.091-.112-.281-.119-.393-.007zM16.849 20.477c-.042.07-.042.323-.007.646.035.288.063.632.07.751 0 .218-.014.232-.246.232-.463 0-.947.73-.947 1.439 0 .358.204.933.372 1.053.428.302 1.025-.07 1.039-.646 0-.161.028-.133.14.175.175.442.4.625.625.505.098-.056.133-.119.105-.197-.112-.295-.253-1.067-.421-2.288-.211-1.579-.225-1.642-.386-1.726-.189-.098-.267-.084-.344.056zm.148 2.239c.021.421-.112 1.27-.246 1.523-.063.126-.07.126-.161-.035-.14-.26-.197-.863-.105-1.13.182-.526.484-.737.512-.358zM17.698 20.716c-.189.189 0 .688.267.688.147 0 .351-.253.351-.435 0-.133-.253-.337-.421-.337a.314.314 0 0 0-.197.084zM20.456 20.8c-.105.154-.098.253.07 1.242.295 1.747.344 1.888.639 1.888.211 0 .225-.056.26-1.404.021-.596.07-1.165.105-1.263.042-.098.077-.147.084-.105.021.302.218 1.425.316 1.811.098.372.175.519.365.688.442.386.589.168.337-.498a14.145 14.145 0 0 1-.323-1.228c-.112-.498-.26-.961-.323-1.032-.133-.147-.533-.168-.646-.035-.042.056-.098.218-.133.372l-.056.274-.049-.281c-.091-.547-.421-.772-.646-.428zM19.439 21.032c-.575.211-.87 1.319-.596 2.246.133.442.309.667.639.828.218.098.302.105.526.042.302-.091.554-.365.554-.611 0-.267-.126-.26-.239.007-.197.47-.646.267-.814-.372-.049-.182-.098-.386-.119-.449-.021-.091.056-.161.281-.267.526-.246.814-1.06.484-1.354-.126-.112-.498-.147-.716-.07zm.603.407c.063.154-.105.505-.309.667-.26.211-.316.175-.274-.147.056-.442.477-.807.582-.519zM17.825 21.839c.007.4.197 1.6.323 1.993.133.435.337.66.47.526.189-.189-.042-2.189-.295-2.533a.541.541 0 0 0-.309-.197c-.175-.021-.189 0-.189.211zM14.379 21.916c-.182.119-.274.26-.393.611-.182.526-.197.877-.063 1.368.14.54.281.758.604.94.526.295 1.123.014 1.123-.519 0-.309-.154-.302-.211.007-.028.161-.077.211-.232.225-.274.035-.449-.147-.575-.568-.161-.547-.14-.632.175-.765.547-.232.807-.997.449-1.347-.161-.161-.597-.14-.877.049zm.779.365c0 .26-.168.547-.379.667-.239.126-.281.07-.182-.281.133-.484.561-.779.561-.386zM12.828 22.035c-.211.218-.218.218-.316.07-.056-.077-.161-.14-.232-.14-.281 0-.295.218-.105 1.418.295 1.853.351 2.014.653 1.923.253-.084.295-.33.189-1.067a9.619 9.619 0 0 1-.105-1.088c0-.421.175-.926.309-.884.042.014.105.189.14.386.035.218.098.365.147.365.112 0 .246-.365.246-.66 0-.547-.519-.723-.926-.323zM10.807 22.189a1.529 1.529 0 0 0-.407.477c-.147.288-.161.386-.133 1.06.049 1.123.414 1.818.961 1.818.484 0 .772-.386.772-1.039 0-.182.035-.372.077-.414a.185.185 0 0 0 .035-.197c-.035-.098-.098-.105-.344-.07-.414.07-.554.154-.526.337.021.133.056.147.26.133l.239-.028-.035.33c-.07.589-.246.589-.54 0-.225-.442-.295-1.579-.119-1.916.126-.246.323-.295.463-.119.112.133.182.133.239 0 .056-.147-.239-.449-.484-.498-.154-.028-.281.007-.456.126zM7.102 22.4a.312.312 0 0 0-.084.203c0 .147.267.484.386.484.295 0 .435-.561.182-.702-.182-.091-.379-.091-.484.014zM8.035 22.765c-.105.154-.098.253.07 1.242.295 1.747.344 1.888.639 1.888.211 0 .225-.056.26-1.404.042-1.361.133-1.67.253-.87.112.744.288 1.495.4 1.726.133.267.421.47.597.428.161-.042.154-.119-.042-.653a16.1 16.1 0 0 1-.316-1.172c-.232-1.025-.33-1.214-.66-1.214-.281 0-.372.091-.449.463l-.056.274-.049-.281c-.091-.547-.421-.772-.646-.428zM7.305 23.291c-.084.056-.084.197.021.947.063.491.189 1.088.274 1.326.133.379.182.435.33.435.154 0 .175-.035.197-.309.028-.344-.161-1.684-.281-2.007-.07-.182-.309-.449-.407-.456a.413.413 0 0 0-.133.063z"/></symbol><symbol id="icon-quality" viewBox="0 0 28 32"><path d="M12.813.4c-.588.2-1.15.675-1.7 1.425-.875 1.188-1.425 1.362-2.988.975-1.013-.263-1.787-.163-2.487.3-1.063.712-1.462 1.65-1.325 3.087.125 1.388-.275 2.075-1.563 2.65C1.425 9.425.825 10.3.825 11.624c0 .963.275 1.563 1.05 2.313.288.275.6.65.7.838.288.55.212 1.362-.2 2.25-.475.988-.5 1.775-.075 2.663.487 1.025 1.4 1.688 2.35 1.688.225 0 .475.05.55.1.1.063-.338 1.225-1.337 3.587-.887 2.075-1.462 3.575-1.413 3.712.1.337.475.288 2.475-.4 1.013-.337 1.9-.625 1.987-.625s.55.85 1.025 1.887c.488 1.038.938 1.938 1.025 2 .387.337.575.012 1.975-3.262l1.4-3.313.55-.288c.675-.35 1.05-.35 1.725 0l.55.288 1.4 3.313c1.775 4.175 1.613 4.1 2.962 1.35.525-1.087 1.038-1.975 1.125-1.975s.975.288 1.962.625c1.962.675 2.337.738 2.438.4.05-.137-.525-1.637-1.413-3.712-1-2.363-1.438-3.525-1.337-3.587.075-.05.325-.1.55-.1.95 0 1.863-.663 2.35-1.688.425-.887.4-1.675-.075-2.663-.413-.887-.488-1.7-.2-2.25.1-.188.413-.563.7-.838.775-.75 1.05-1.35 1.05-2.313 0-1.325-.6-2.2-1.925-2.787-1.288-.575-1.688-1.263-1.563-2.65.137-1.438-.262-2.375-1.325-3.087-.7-.462-1.475-.563-2.488-.3-1.563.388-2.113.212-2.988-.975C15.81 1.05 15.26.6 14.635.387 14.123.224 13.322.224 12.81.4zm1.724.9c.225.087.575.375.775.625.988 1.213 1.288 1.5 1.75 1.713.613.288 1.6.3 2.313.05.288-.1.712-.188.925-.188.637 0 1.475.5 1.8 1.063.262.45.275.6.212 1.525-.05.662-.025 1.213.075 1.537.225.762.925 1.488 1.813 1.887.925.425 1.488 1.037 1.613 1.725.137.825-.038 1.25-.825 2.075-.875.912-1.113 1.438-1.113 2.4 0 .55.087.925.387 1.537.313.663.375.925.325 1.413-.1 1.113-.85 1.762-2.175 1.887-1.85.188-2.663.85-3.1 2.563-.25.988-.438 1.275-1.05 1.613-.637.363-1.438.363-2.038-.012-.25-.15-.725-.438-1.05-.65-.5-.313-.725-.363-1.425-.363s-.925.05-1.425.363c-.325.212-.8.5-1.05.65-1.262.775-2.75.012-3.088-1.575-.15-.725-.425-1.238-.875-1.7-.575-.563-1.063-.762-2.162-.875-1.388-.137-2.138-.775-2.237-1.9-.05-.488.013-.75.325-1.413.3-.613.388-.988.388-1.537 0-.963-.237-1.488-1.112-2.4-.788-.825-.962-1.25-.825-2.075.125-.688.687-1.3 1.613-1.725.887-.4 1.587-1.125 1.812-1.9.1-.338.125-.875.075-1.537-.063-.912-.037-1.063.213-1.5.325-.563 1.175-1.075 1.788-1.075.225 0 .65.087.938.188.713.25 1.7.237 2.313-.05.463-.212.762-.5 1.75-1.712.613-.75 1.488-.988 2.35-.625zM6.875 22.275c.2.275.375.575.375.663 0 .475.45 1.512.85 1.962.6.663 1.275.975 2.188.975.387 0 .713.025.713.063 0 .113-1.662 4-1.762 4.113-.05.063-.463-.663-.912-1.6-.688-1.462-.85-1.7-1.1-1.7-.162 0-.975.238-1.813.525s-1.563.488-1.612.438c-.125-.125 2.362-5.95 2.538-5.962.088 0 .325.238.537.525zm15.712 2.5c.7 1.675 1.262 3.038 1.25 3.05s-.75-.225-1.637-.525c-.887-.3-1.738-.55-1.913-.55-.275 0-.4.2-1.113 1.7-.45.938-.863 1.663-.913 1.6-.1-.113-1.762-4-1.762-4.113 0-.038.262-.063.6-.063.875 0 1.488-.212 2.038-.712.6-.538.775-.863 1.025-1.825.2-.738.725-1.587 1-1.587.087 0 .725 1.363 1.425 3.025z"/><path d="M11.875 5.45c-1.688.45-3.4 1.575-4.325 2.825-1.2 1.625-1.6 2.85-1.6 4.787 0 1.563.2 2.4.875 3.7.85 1.625 2.588 3.125 4.313 3.738 1.1.387 3.35.488 4.488.2 2.65-.663 4.9-2.825 5.675-5.438 1.238-4.225-1.375-8.7-5.738-9.825-.925-.237-2.775-.237-3.688.013zm3.55.863c2.962.775 5.05 3.262 5.275 6.313.25 3.225-2 6.35-5.15 7.188-1.063.288-2.8.262-3.8-.05-3.4-1.063-5.5-4.5-4.862-7.95.475-2.6 2.525-4.787 5.138-5.487.875-.237 2.5-.25 3.4-.013z"/><path d="M16.5 9.213c-.325.125-.613.425-2.162 2.213l-1.512 1.738-.613-.675c-.35-.375-.775-.775-.95-.887-.65-.438-1.7-.162-2.088.55-.213.363-.213 1.075-.012 1.438.275.5 2.625 3.05 2.975 3.225.475.25 1.1.238 1.5-.038.35-.225 4.225-4.7 4.638-5.338.563-.875-.063-2.15-1.1-2.25-.262-.037-.575-.025-.675.025zm.925.987c.4.387.225.713-1.563 2.8-2.488 2.9-2.7 3.125-3.05 3.125-.375 0-2.938-2.8-2.938-3.213 0-.338.313-.662.637-.662.262 0 .4.125 1.45 1.287.35.387.75.713.875.713.137 0 .825-.7 1.75-1.787 2-2.338 2.125-2.463 2.413-2.463.125 0 .325.088.425.2z"/></symbol><symbol id="icon-tradition" viewBox="0 0 32 32"><path d="M14.62 1.031c-.736.417-.789.425-1.236.296-.614-.174-.743-.152-1.191.235l-.402.349-1.282-.091-.432.463-.432.47-.561.03c-.622.046-.804.159-1.054.645-.19.364-.387.485-.887.554-.485.061-.705.243-.887.72-.174.478-.288.576-.849.766-.531.174-.576.235-.796 1.016-.099.356-.136.394-.591.645-.546.296-.675.485-.682.986-.008.432-.106.614-.531.918-.493.356-.523.417-.531 1.077v.591l-.387.417c-.425.44-.44.508-.334 1.251.061.447.023.569-.379 1.122-.228.311-.235.493-.038.955s.19.531-.076 1.024c-.288.538-.288.698.015 1.266l.25.47-.174.478c-.091.265-.167.554-.167.637 0 .091.137.349.311.569.303.402.303.417.258.864-.106.895-.099.925.326 1.342l.394.379v.614c0 .667-.053.576.743 1.244.22.182.258.281.318.705.083.69.114.736.614.993.5.25.614.394.751.94.114.485.228.607.713.766.508.167.629.281.88.834.228.5.356.591.993.675.379.046.5.152.849.705.25.379.44.47 1.016.47.425 0 .432.008.88.463l.447.47.591-.046c.645-.053.622-.061 1.327.508.273.22.281.227.705.129.849-.197.827-.197 1.266.106.47.326.645.326 1.312.03l.394-.174.402.174c.645.288.819.288 1.319-.023.493-.303.622-.326 1.084-.159.47.167.652.144.963-.137.561-.493.607-.516 1.251-.463l.591.053.887-.933h.523c.296 0 .576-.046.645-.099s.235-.273.372-.5c.265-.425.561-.614.963-.614.379 0 .584-.174.857-.72.258-.516.273-.523.781-.728.288-.114.538-.227.561-.25s.137-.303.243-.629c.197-.576.197-.584.629-.796.523-.258.637-.417.698-.986.061-.584.091-.637.493-.91.5-.349.531-.409.538-1.069v-.584l.425-.463c.47-.508.447-.417.288-1.395-.038-.273-.015-.349.265-.72.356-.478.379-.675.159-1.312l-.152-.432.281-.554.273-.561-.561-1.137.159-.409c.22-.591.197-.819-.129-1.251-.303-.394-.326-.546-.22-1.327l.061-.425-.425-.432-.425-.44v-.607c0-.584-.008-.614-.235-.811-.766-.652-.751-.629-.796-1.107-.061-.576-.174-.751-.622-.978-.478-.243-.584-.379-.728-.918-.129-.508-.288-.675-.751-.804-.47-.121-.629-.265-.811-.705-.205-.516-.409-.698-.834-.766-.584-.083-.736-.182-.978-.614-.281-.478-.409-.561-.918-.561s-.834-.144-1.062-.478c-.296-.432-.5-.516-1.153-.463l-.554.053-.417-.356c-.455-.387-.629-.425-1.244-.235-.432.129-.569.106-1.016-.212-.387-.281-.682-.296-1.137-.061-.372.19-.698.205-1.016.038-.485-.25-.645-.258-.986-.061zm2.426.865c1.638.129 3.01.432 4.353.978 4.565 1.827 7.788 5.725 8.789 10.624.167.781.182 1.069.182 2.768-.008 1.782-.015 1.956-.22 2.866-1.107 5.118-4.792 9.206-9.714 10.775-2.98.948-6.423.864-9.35-.227-4.686-1.752-8.03-5.687-9.084-10.684-.197-.902-.212-1.13-.212-2.692-.008-1.736.038-2.207.341-3.45.341-1.38.902-2.76 1.653-4.042 1.418-2.427 4.011-4.679 6.681-5.809 1.706-.72 3.132-1.024 5.498-1.168.083-.008.569.023 1.084.061z"/><path d="M15.28 3.01c-1.213.076-2.601.379-3.799.819C9.6 4.534 8.084 5.55 6.59 7.112c-3.791 3.958-4.686 9.865-2.237 14.809 1.774 3.572 5.179 6.218 8.993 6.999 1.623.326 3.663.349 5.209.053 5.604-1.069 9.911-5.725 10.563-11.42.834-7.31-4.656-13.953-11.996-14.521-.91-.068-1.069-.076-1.843-.023zm3.715.539c2.882.728 5.02 2.047 6.946 4.277 2.957 3.42 3.822 8.409 2.214 12.762-1.426 3.86-4.785 6.916-8.743 7.954-1.797.47-4.042.554-5.778.205-4.216-.842-7.735-3.708-9.388-7.628-1.228-2.912-1.357-6.036-.372-9.1.303-.94 1.1-2.51 1.714-3.374.637-.887 2.123-2.389 2.965-2.988a13.122 13.122 0 0 1 4.413-2.047c1.236-.311 1.585-.341 3.412-.318 1.608.023 1.759.038 2.616.258z"/><path d="M13.839 7.826a4.94 4.94 0 0 0-.053.478l-.023.296-.341-.015c-.334-.023-.356 0-.842.493-.281.281-.645.591-.811.69-.281.152-.318.159-.425.046-.144-.136-.144-.205-.046-.554.106-.379-.008-.538-.402-.538s-.69.19-.971.607c-.258.387-.349.781-.227 1.031.159.349.516.334.94-.038.227-.205.258-.212.394-.106.205.152.675.083.971-.136.174-.129.22-.136.182-.046-.023.068-.008.227.03.356.061.167.129.227.265.227.318 0 .675-.197.955-.523l.273-.318.076.227c.099.288.372.364.682.205.129-.068.311-.121.402-.121.129 0 .144-.023.076-.106-.061-.076-.068-.121-.008-.159.076-.046.106 0 .182.356.068.303.356.47.705.402.205-.038.402-.174.743-.516l.463-.47-.076.44c-.099.554-.008.849.258.849.174 0 .19-.023.167-.303-.023-.311.121-1.16.205-1.206.023-.015.265-.053.531-.083l.478-.053-.046.22c-.076.326.068.872.273 1.031.235.19.607.121.978-.174.334-.265.372-.273.372-.091 0 .197.152.318.394.318.5 0 .986-.372 1.084-.827.038-.19.091-.22.394-.265.19-.023.387-.076.432-.114.061-.053.083.083.083.47 0 .5.015.546.159.569.121.015.243-.068.417-.296.144-.167.349-.417.455-.546l.205-.235.053.334c.061.372.167.614.296.698.235.159.751-.03 1.183-.44l.19-.174.25.227c.296.273.281.372-.046.523-.174.083-.235.159-.227.265.038.258.379.235.698-.038.379-.341.372-.614-.03-1.024l-.303-.311.19-.182c.265-.25.25-.455-.038-.455-.182 0-.288.076-.538.394-.394.508-.789.834-.963.804-.083-.015-.152-.129-.197-.326-.121-.576-.167-.645-.47-.645-.227 0-.334.061-.576.318-.182.197-.288.265-.25.174.03-.083.068-.265.091-.402.053-.296-.015-.303-.773-.091l-.523.152-.167-.159c-.099-.091-.311-.174-.5-.197-.326-.038-.326-.038-.88.576-.576.637-.925.887-1.13.804-.099-.038-.114-.144-.076-.66l.053-.614-.288.053a28.71 28.71 0 0 1-.758.099l-.478.046.053-.22c.03-.121.083-.296.114-.394.129-.349.091-.485-.137-.455-.19.023-.227.076-.341.508-.068.265-.144.5-.167.516-.023.023-.19.061-.387.076-.372.046-.409.099-.22.288.114.114.106.136-.091.349-.273.288-.614.47-.766.409-.099-.038-.114-.136-.076-.645.046-.569.038-.607-.099-.607-.083 0-.372.22-.645.493-.265.273-.523.493-.569.493-.144 0-.174-.425-.076-1.062.19-1.251.197-1.137-.068-1.137-.182 0-.243.038-.273.167zm-.402 1.402c.015.205-.038.311-.311.591-.281.296-.538.432-.538.303 0-.25.667-1.297.766-1.198.03.038.068.174.083.303zm-2.616.107c-.061.463-.736 1.107-.736.713 0-.273.523-1.024.705-1.024.038 0 .053.136.03.311zm10.381-.122c.129.326-.22.986-.485.933-.212-.046-.099-.576.197-.918.144-.159.235-.167.288-.015z"/><path d="M15.302 8.008c-.076.159-.068.205.023.265.281.174.599.023.599-.288 0-.152-.038-.174-.265-.174-.212 0-.288.038-.356.197zM18.791 8.008c-.076.159-.068.205.023.265.281.174.599.023.599-.288 0-.152-.038-.174-.265-.174-.212 0-.288.038-.356.197zM6.749 8.144a2.662 2.662 0 0 0-.114.44c-.076.394-.136.455-.523.493-.379.046-.417.099-.22.288.076.083.205.114.341.099.197-.03.22-.015.182.121a3.88 3.88 0 0 0-.091.584c-.061.508.053.773.296.736.144-.023.167-.061.144-.326-.023-.311.121-1.16.205-1.206.023-.015.258-.053.516-.083l.478-.053-.023.751-.015.743h.22c.197 0 .235-.046.341-.341.25-.728.584-1.062 1.039-1.062.159 0 .19-.03.167-.174-.046-.334-.811-.235-1.115.144l-.136.174.008-.281c.008-.318.053-.311-.925-.205l-.554.061.053-.22c.03-.121.083-.296.114-.394.121-.326.083-.47-.121-.47-.136 0-.212.053-.265.182zM15.333 12.572a1.27 1.27 0 0 0-.675.212c-.364.243-.554.288-1.031.227-.22-.03-.546-.076-.736-.099-.182-.023-.743.023-1.236.099-1.069.167-1.031.114-.902 1.365.053.463.091.986.091 1.153s.03.326.068.356c.038.023.129.19.205.379.121.326.121.356 0 .637-.129.281-.22.334-2.836 1.6a214.61 214.61 0 0 0-2.76 1.357c-.03.03-.076.288-.106.584l-.053.538.349.318c.19.174.334.364.311.409-.015.053.652.736 1.486 1.517 1.077 1.016 1.6 1.456 1.782 1.501.159.046.265.121.265.19 0 .197.44.576 1.319 1.13l.819.523.584-.311c.318-.167 2.502-1.304 4.861-2.525s4.861-2.525 5.573-2.889L24 20.176l.121-.516.129-.516-.25-.341c-.591-.819-.698-1.266-.432-1.79.281-.554.728-.88 1.691-1.228.478-.182.978-.387 1.1-.463.303-.182.538-.682.599-1.259.038-.387.015-.508-.129-.796-.243-.47-.569-.645-1.198-.645-.713.008-1.122.22-1.828.948-.485.493-.645.614-1.009.728-.409.129-.455.129-1.13-.008-.379-.076-.728-.159-.766-.197-.03-.03-.008-.227.068-.44a2.15 2.15 0 0 0 .099-.705l-.023-.326-.455-.053c-.455-.046-4.504-.053-5.255 0zm4.936.16.447.046-.789.334c-1.304.561-2.874 1.335-3.435 1.706-.66.432-.584.455.114.046.281-.174 1.228-.645 2.093-1.054.872-.409 1.729-.819 1.911-.91l.318-.159v.258c0 .152-.083.531-.19.857-.235.736-.235.849-.008 1.183.099.144.174.281.159.296-.008.015-.061.432-.106.933s-.121 1.168-.167 1.479c-.076.546-.091.576-.356.728-.152.091-.485.19-.728.22-.538.061-.811.288-.963.789-.083.288-.182.379-1.084 1.016-2.26 1.577-2.154 1.517-2.624 1.471-1.1-.106-3.428-1.691-3.64-2.48-.091-.326-.068-2.047.023-2.047.038 0 .03-.053-.023-.114-.076-.091-.068-.114.03-.114.136 0 .303-.349.227-.47-.03-.046-.023-.061.015-.038.046.023.076-.099.076-.296.008-.311-.023-.372-.273-.569-.205-.167-.281-.288-.288-.455 0-.152.023-.205.083-.167.053.03.053 0-.008-.076-.061-.068-.083-.159-.053-.205.023-.038.015-.076-.03-.076-.038 0-.068-.129-.068-.288a1.677 1.677 0 0 0-.053-.493c-.068-.25.038-.265.341-.053.114.083.227.129.258.099.023-.023.106.008.174.076.182.159 1.175.736 1.274.736.038 0-.318-.258-.796-.576-.811-.531-1.289-.91-1.289-1.016 0-.091 1.797-.318 2.131-.273.182.03.554.076.827.091.447.038.523.023.796-.174.243-.167.417-.22.872-.258.773-.061 4.254-.061 4.8 0zm5.998.197c.311.152.5.478.5.872 0 .682-.372 1.039-1.441 1.365-1.297.402-1.691.66-2.047 1.35-.137.265-.167.409-.129.766.038.425.334 1.137.675 1.623.083.121.137.227.121.243s-.569.288-1.221.599c-.66.318-1.342.675-1.524.804-.561.379-2.51 1.365-2.715 1.365-.106 0-.326.099-.5.22a5.1 5.1 0 0 1-.751.447c-.243.129-.918.5-1.501.842-.584.334-1.13.614-1.213.614-.182 0-.629.227-1.714.88-.447.265-.842.485-.88.485-.046 0-.129-.061-.205-.144-.159-.174-.061-.265.463-.425.409-.121 1.084-.599 1.084-.766 0-.144-.015-.137-.432.121a3.448 3.448 0 0 1-.849.334c-.273.061-.554.182-.645.265l-.152.152-.379-.273a30.73 30.73 0 0 1-.447-.326c-.03-.03.197-.22.508-.425.318-.205.576-.417.576-.47 0-.129 0-.129-.827.281l-.751.379-.159-.174c-.121-.129-.152-.227-.114-.409.053-.273.046-.281-.296-.137l-.243.099-1.388-1.342c-.758-.743-1.38-1.38-1.38-1.426 0-.038.19-.318.417-.614s.394-.538.372-.538c-.03 0-.303.159-.622.349-.44.265-.584.318-.629.243a.355.355 0 0 1-.068-.152c0-.046 5.035-2.563 5.126-2.563.023 0 .083.447.136.986.015.19 0 .402-.046.478-.182.349.478 1.418 1.183 1.911.121.083.288.227.379.318.182.182.713.478.857.478.053 0 .099.03.099.068 0 .046.19.137.417.205.273.091.387.159.326.197-.053.03.159.061.47.061h.569l1.668-1.122c1.448-.963 1.676-1.145 1.736-1.365.091-.326.5-.682.857-.736.281-.046.766-.258 1.039-.463.114-.076.159-.303.243-1.107.061-.554.137-1.259.182-1.57.068-.523.068-.576-.076-.728-.099-.106-.152-.265-.152-.47v-.303l.591.136c1.221.296 1.805.129 2.555-.72.561-.629 1.024-.88 1.653-.88.243 0 .554.053.69.114zm-14.885 1.077c.076.099.053.091-.083-.023a1.288 1.288 0 0 0-.318-.205c-.076-.03-.136-.083-.136-.129 0-.099.379.159.538.356zm15.067 1.023c-.076.114-.409.273-1.016.493-1.153.417-1.517.645-1.843 1.137-.144.22-.281.387-.296.372-.053-.061.265-.69.463-.925.212-.25.91-.569 1.911-.864.296-.083.599-.205.675-.265.205-.159.235-.144.106.053zm-2.525 4.664c-.061.19-.152.379-.205.417-.053.03-.902.478-1.881.978l-2.464 1.282c-.372.197-1.6.834-2.73 1.418l-3.397 1.767c-.743.379-1.365.682-1.388.66-.015-.015.008-.167.061-.326.091-.265.19-.349 1.16-.918.584-.349 1.198-.667 1.365-.705.167-.046.44-.152.607-.243 1.001-.554 2.563-1.448 2.927-1.683.235-.152.523-.273.637-.273.205 0 2.267-1.062 2.73-1.403.174-.121 2.586-1.327 2.669-1.327.008 0-.03.159-.091.356zm-17.736.804-.205.265 1.532 1.479c1.282 1.244 1.554 1.479 1.668 1.418.19-.106.22-.091.167.046-.046.129.417.66.523.591.038-.023.356.167.713.425l.652.47.235-.212c.227-.205.235-.212.061-.015l-.174.197.235.22c.227.212.227.212.129.576l-.091.364-.918-.599c-.69-.455-.925-.652-.963-.811-.038-.144-.144-.243-.394-.349-.394-.182-3.086-2.684-3.124-2.919-.015-.076-.182-.281-.372-.455-.334-.296-.341-.318-.288-.629.045-.296.061-.311.182-.205.114.106.152.099.349-.023.129-.076.243-.129.258-.114.008.008-.068.137-.174.281z"/><path d="M13.536 15.28c.083.061.19.136.227.174.046.038.144.046.212.023.114-.046.083-.076-.136-.182-.326-.159-.516-.167-.303-.015zM14.976 15.234c-.129.03-.303.099-.379.152-.136.083-.129.091.068.046.645-.136.66-.136.834.03.091.091.19.136.22.114.083-.091-.015.394-.167.796-.099.273-.114.372-.046.311.121-.099.311-.591.372-.963.038-.22.015-.25-.288-.394-.174-.091-.334-.159-.356-.152-.015.008-.136.03-.258.061zM14.408 15.81c0 .235.409.872.554.872.046 0 .023-.061-.038-.137-.068-.068-.19-.273-.281-.455-.144-.288-.235-.394-.235-.281zM15.105 19.39c.008 1.585.023 1.994.068 1.501.083-1.062.083-3.678-.008-3.678-.046 0-.068.766-.061 2.176zM25.062 13.217c-.288.167-.645.591-.645.773 0 .053.068.182.159.296.129.167.212.197.531.197.637 0 1.13-.379 1.13-.872 0-.531-.584-.728-1.175-.394zm.856.023c.091.061.167.167.167.22 0 .091-.038.091-.19.023-.273-.121-.705.023-1.046.356-.303.288-.364.235-.152-.121.121-.205.766-.599.971-.599.046 0 .159.053.25.121zm.046.379c.47.182-.531.887-1.062.758-.235-.061-.227-.197.03-.44.364-.341.698-.447 1.031-.318z"/></symbol><symbol id="icon-locate" viewBox="0 0 32 32"><path d="M26.354 10.425C26.354 4.093 22.292 0 16 0S5.646 4.093 5.646 10.425c0 5.278 8.155 15.874 9.088 17.059l1.139 1.464c-4.771.012-8.618.69-8.618 1.526 0 .843 3.918 1.526 8.751 1.526s8.751-.683 8.751-1.526c0-.836-3.852-1.514-8.627-1.526l1.146-1.464c.924-1.193 9.079-11.789 9.079-17.059zm-13.707-.007c0-1.802 1.501-3.263 3.353-3.263s3.353 1.461 3.353 3.263-1.501 3.263-3.353 3.263c-1.852 0-3.353-1.461-3.353-3.263z"/></symbol><symbol id="icon-phone" viewBox="0 0 32 32"><path d="m31.555 26.609-4.512 4.475c-.666.683-1.549.914-2.408.915-3.802-.114-7.396-1.981-10.346-3.899-4.843-3.523-9.287-7.892-12.076-13.172-1.07-2.214-2.325-5.039-2.205-7.51.011-.93.261-1.842.916-2.441L5.436.468c.937-.797 1.843-.521 2.442.407l3.63 6.883c.382.815.163 1.689-.407 2.272l-1.662 1.661a.819.819 0 0 0-.17.475c.637 2.467 2.568 4.741 4.274 6.306s3.539 3.685 5.919 4.187c.294.082.655.111.865-.085l1.934-1.966c.667-.505 1.629-.752 2.341-.339h.034l6.547 3.865c.961.602 1.061 1.767.373 2.475z"/></symbol><symbol id="icon-mail" viewBox="0 0 36 32"><path d="m33.05 26.325-9.025-9.075 9.05-9.025v18.1h-.025zm-29.325 1.7 9.1-9.1 2 1.975c.75.75 1.65 1.25 2.75 1.25s2-.5 2.75-1.25l2-1.975 9.1 9.1h-27.7zm27.75-21.7L18.5 19.35c-.25.25-.475.4-.925.4s-.675-.15-.925-.4L3.675 6.325h27.8zM2.1 8.225l9.05 9.025-9.05 9.075v-18.1z"/></symbol><symbol id="icon-viber" viewBox="0 0 32 32"><path d="M15.198.005C12.63.036 7.109.458 4.021 3.291 1.724 5.567.922 8.932.828 13.093.75 17.239.656 25.025 8.161 27.145v3.229s-.047 1.292.807 1.557c1.052.333 1.651-.661 2.651-1.729l1.865-2.109c5.135.427 9.068-.557 9.521-.703 1.042-.333 6.911-1.083 7.87-8.87.984-8.042-.479-13.109-3.12-15.401h-.016c-.797-.734-4-3.068-11.156-3.094 0 0-.531-.036-1.385-.021zm.088 2.261c.729-.005 1.172.026 1.172.026 6.057.016 8.948 1.839 9.63 2.453 2.224 1.906 3.37 6.474 2.531 13.188-.797 6.51-5.557 6.922-6.438 7.203-.375.12-3.839.974-8.203.693 0 0-3.25 3.922-4.266 4.932-.161.177-.349.229-.469.203-.172-.042-.224-.255-.214-.547l.031-5.359c-6.365-1.76-5.99-8.401-5.922-11.87.078-3.469.729-6.307 2.667-8.229 2.609-2.359 7.297-2.677 9.479-2.693zm.48 3.468a.397.397 0 0 0-.401.396c0 .224.182.401.401.401a7.513 7.513 0 0 1 5.375 2.12c1.453 1.411 2.161 3.307 2.188 5.786 0 .219.177.401.401.401v-.016a.4.4 0 0 0 .401-.396 8.614 8.614 0 0 0-2.417-6.349c-1.583-1.547-3.589-2.344-5.948-2.344zm-5.271.917a1.252 1.252 0 0 0-.818.161h-.021A6.276 6.276 0 0 0 8.13 8.067c-.365.422-.563.849-.615 1.26-.031.245-.01.49.063.724l.026.016c.411 1.208.948 2.37 1.604 3.464a20.376 20.376 0 0 0 3.094 4.229l.036.052.057.042.036.042.042.036a20.67 20.67 0 0 0 4.24 3.109c1.76.958 2.828 1.411 3.469 1.599v.01c.188.057.359.083.531.083a2.452 2.452 0 0 0 1.469-.63 6.064 6.064 0 0 0 1.24-1.531v-.01c.307-.578.203-1.125-.24-1.495a18.467 18.467 0 0 0-2.865-2.057c-.682-.37-1.375-.146-1.656.229l-.599.755c-.307.375-.865.323-.865.323l-.016.01c-4.161-1.063-5.271-5.276-5.271-5.276s-.052-.573.333-.865l.75-.604c.359-.292.609-.984.224-1.667a17.992 17.992 0 0 0-2.052-2.865 1.14 1.14 0 0 0-.672-.401zm5.963 1.188c-.531 0-.531.802.005.802a5.026 5.026 0 0 1 3.531 1.531 4.66 4.66 0 0 1 1.198 3.427.403.403 0 0 0 .401.396l.016.021a.404.404 0 0 0 .401-.401c.036-1.589-.458-2.922-1.427-3.99-.974-1.068-2.333-1.667-4.068-1.786h-.057zm.657 2.156c-.547-.016-.568.802-.026.818 1.318.068 1.958.734 2.042 2.104a.398.398 0 0 0 .396.391h.016a.403.403 0 0 0 .385-.427c-.094-1.786-1.068-2.792-2.797-2.885h-.016z"/></symbol><symbol id="icon-telegram" viewBox="0 0 32 32"><path d="M16.546 14.329c-1.909 1.756-3.772 3.419-3.772 3.419a.624.624 0 1 0 .832.932s4.88-4.356 6.964-6.44c.318-.318.414-.561.431-.662a.623.623 0 0 0-.176-.57.646.646 0 0 0-.453-.199c-.106-.004-.342.037-.659.186-1.816.854-9.039 5.666-9.039 5.666a.625.625 0 0 0 .693 1.04s2.688-1.793 5.178-3.372z"/><path d="M16 1.375C7.928 1.375 1.375 7.928 1.375 16S7.928 30.625 16 30.625 30.625 24.072 30.625 16 24.072 1.375 16 1.375zm0 1.25c7.382 0 13.375 5.993 13.375 13.375S23.382 29.375 16 29.375 2.625 23.382 2.625 16 8.618 2.625 16 2.625z"/><path d="m10.52 17.676 1.337 4.35.016.047c.142.357.285.565.387.663a.712.712 0 0 0 .531.215c.221-.007.577-.138.718-.662a.65.65 0 0 0 .02-.117l.202-2.784 5.282 3.885c.543.412 1.031.499 1.4.387.381-.116.75-.466.925-1.21l.003-.013 2.607-12.286c.155-.654.068-1.143-.145-1.429-.247-.332-.713-.558-1.506-.344a.465.465 0 0 0-.063.021l-15.315 5.94a.542.542 0 0 0-.069.032c-.726.39-.887.835-.889 1.123-.003.388.27.764.732.95a.3.3 0 0 0 .042.015l3.783 1.217zm12.255-8.12c-.006.089-.018.21-.042.312l-.004.016-2.607 12.284a1.507 1.507 0 0 1-.095.259 1.66 1.66 0 0 1-.259-.153l-.009-.007-6.198-4.558a.625.625 0 0 0-.993.458l-.113 1.548-.836-2.719a.628.628 0 0 0-.406-.412L7.59 15.418l15.063-5.842c.041-.009.084-.016.122-.021z"/><path d="m13.202 22.796 2.717-2.346a.625.625 0 0 0-.817-.946l-2.717 2.346a.625.625 0 0 0 .816.946z"/></symbol><symbol id="icon-whatsapp" viewBox="0 0 32 32"><path d="M31.68 15.597c0 8.436-6.892 15.276-15.396 15.276-2.699 0-5.234-.69-7.44-1.899L.321 31.681l2.778-8.198a15.122 15.122 0 0 1-2.208-7.886C.892 7.161 7.782.321 16.286.321c8.503.002 15.394 6.84 15.394 15.277zM16.283 2.756C9.146 2.756 3.341 8.517 3.341 15.6c0 2.81.916 5.412 2.465 7.528L4.19 27.896l4.972-1.58a12.936 12.936 0 0 0 7.12 2.123c7.137 0 12.944-5.76 12.944-12.843.002-7.079-5.806-12.841-12.944-12.841zm7.776 16.359c-.096-.154-.348-.248-.724-.437-.375-.188-2.233-1.093-2.578-1.216-.348-.126-.599-.189-.851.186-.248.375-.973 1.218-1.194 1.469-.22.251-.44.282-.817.097-.377-.19-1.594-.583-3.036-1.858-1.122-.994-1.88-2.218-2.098-2.593-.222-.374-.023-.577.165-.763.169-.169.377-.438.567-.658.189-.218.252-.372.377-.623.124-.251.061-.468-.032-.658-.094-.188-.848-2.029-1.164-2.778-.314-.749-.628-.625-.849-.625-.22 0-.471-.031-.723-.031s-.661.091-1.005.466c-.345.375-1.32 1.28-1.32 3.123 0 1.845 1.351 3.623 1.54 3.873.19.248 2.612 4.154 6.447 5.653 3.838 1.498 3.838.998 4.529.935.693-.063 2.233-.905 2.546-1.778.315-.877.315-1.629.22-1.785z"/></symbol><symbol id="icon-download" viewBox="0 0 32 32"><path d="m16 18 8-8h-6V2h-4v8H8zm7.273-3.273-2.242 2.242L29.159 20l-13.158 4.907L2.843 20l8.127-3.031-2.242-2.242L.001 18v8l16 6 16-6v-8z"/></symbol><symbol id="icon-pencil" viewBox="0 0 32 32"><path d="m12 20 4-2L30 4l-2-2-14 14-2 4zm-2.959 7.097c-.989-2.085-2.052-3.149-4.137-4.137l3.097-8.525 4-2.435 12-12h-6l-12 12-6 20 20-6 12-12V8l-12 12-2.435 4z"/></symbol><symbol id="icon-arrow-up" viewBox="0 0 32 32"><path d="M4.5 19.6 15.7 8.367c.133-.133.278-.228.433-.283s.322-.084.5-.084.345.028.5.084.3.149.433.283L28.799 19.6c.311.311.467.7.467 1.167s-.167.867-.5 1.2c-.333.333-.722.5-1.167.5s-.833-.167-1.167-.5l-9.8-9.8-9.8 9.8c-.311.311-.694.467-1.149.467s-.851-.167-1.184-.5-.5-.722-.5-1.167c0-.444.167-.833.5-1.167z"/></symbol></defs></svg>