<svg xmlns="http://www.w3.org/2000/svg" aria-hidden="true" style="position: absolute; width: 0; height: 0; overflow: hidden;"  >
<defs>

<symbol id="icon-menu" viewBox="0 0 32 32">
<path d="M0 2h32v4h-32zM0 8h32v4h-32zM0 14h32v4h-32zM0 20h32v4h-32zM0 26h32v4h-32z"></path>
</symbol>

<symbol id="icon-cross" viewBox="0 0 32 32">
<path d="M31.708 25.708c-0-0-0-0-0-0l-9.708-9.708 9.708-9.708c0-0 0-0 0-0 0.105-0.105 0.18-0.227 0.229-0.357 0.133-0.356 0.057-0.771-0.229-1.057l-4.586-4.586c-0.286-0.286-0.702-0.361-1.057-0.229-0.13 0.048-0.252 0.124-0.357 0.228 0 0-0 0-0 0l-9.708 9.708-9.708-9.708c-0-0-0-0-0-0-0.105-0.104-0.227-0.18-0.357-0.228-0.356-0.133-0.771-0.057-1.057 0.229l-4.586 4.586c-0.286 0.286-0.361 0.702-0.229 1.057 0.049 0.13 0.124 0.252 0.229 0.357 0 0 0 0 0 0l9.708 9.708-9.708 9.708c-0 0-0 0-0 0-0.104 0.105-0.18 0.227-0.229 0.357-0.133 0.355-0.057 0.771 0.229 1.057l4.586 4.586c0.286 0.286 0.702 0.361 1.057 0.229 0.13-0.049 0.252-0.124 0.357-0.229 0-0 0-0 0-0l9.708-9.708 9.708 9.708c0 0 0 0 0 0 0.105 0.105 0.227 0.18 0.357 0.229 0.356 0.133 0.771 0.057 1.057-0.229l4.586-4.586c0.286-0.286 0.362-0.702 0.229-1.057-0.049-0.13-0.124-0.252-0.229-0.357z"></path>
</symbol>

<symbol id="icon-naturalness" viewBox="0 0 30 32">
<path d="M22.912 0.975c-0.14 0.042-0.611 0.295-1.088 0.575-0.589 0.351-1.628 1.263-1.895 1.67-0.056 0.091-0.154 0.232-0.218 0.316-0.533 0.702-0.821 2.211-0.632 3.235 0.098 0.519 0.484 1.326 0.779 1.628 0.197 0.204 0.351 0.295 0.351 0.197 0-0.021 0.084-0.309 0.182-0.646 0.098-0.344 0.288-0.997 0.421-1.46s0.274-0.905 0.309-0.982c0.028-0.077 0.084-0.239 0.112-0.351 0.035-0.133 0.063-0.168 0.077-0.091 0.028 0.098-0.035 0.547-0.267 1.986-0.168 1.060-0.168 1.025-0.021 0.975 0.070-0.028 0.218-0.112 0.323-0.182 0.098-0.070 0.211-0.126 0.253-0.126 0.035 0 0.267-0.197 0.519-0.442 0.681-0.653 1.060-1.474 1.151-2.526 0.042-0.547-0.105-3.846-0.175-3.832-0.021 0.007-0.105 0.028-0.182 0.056z"></path>
<path d="M13.403 3.628c-1.025 0.056-3.074 0.547-4.035 0.968-0.112 0.049-0.4 0.175-0.632 0.274-0.232 0.105-0.498 0.232-0.597 0.295-0.098 0.056-0.232 0.126-0.295 0.147-0.070 0.021-0.126 0.063-0.126 0.098s-0.049 0.063-0.105 0.063c-0.175 0-1.495 0.912-2.056 1.425-0.477 0.435-1.382 1.354-1.558 1.579-0.098 0.126-0.246 0.316-0.337 0.421-0.309 0.365-0.772 1.116-1.123 1.811-0.309 0.618-0.47 0.996-0.828 1.951-0.211 0.547-0.519 1.993-0.625 2.87-0.182 1.544-0.112 3.095 0.204 4.618 0.126 0.582 0.54 1.923 0.723 2.309 0.063 0.133 0.182 0.4 0.26 0.596 0.295 0.702 0.961 1.789 1.677 2.737 0.175 0.232 1.909 1.979 2.119 2.14 1.165 0.87 1.312 0.968 2.351 1.516 0.568 0.302 2 0.884 2.491 1.011 0.119 0.035 0.386 0.105 0.597 0.161 0.407 0.105 0.849 0.197 1.649 0.337 0.996 0.175 3.67 0.091 4.667-0.147 0.133-0.035 0.47-0.112 0.737-0.175 1.27-0.295 2.021-0.596 3.663-1.467 0.197-0.105 0.4-0.239 0.449-0.295 0.042-0.056 0.119-0.098 0.168-0.098s0.126-0.049 0.175-0.105c0.042-0.056 0.225-0.197 0.393-0.309 1.137-0.751 2.596-2.295 3.523-3.726 0.358-0.554 1.277-2.309 1.277-2.442 0-0.035 0.084-0.26 0.182-0.505 0.316-0.786 0.547-1.768 0.702-3.018 0.232-1.923 0.021-3.958-0.611-5.86-0.323-0.961-0.533-1.368-0.793-1.509-0.33-0.168-0.365-0.014-0.154 0.681 1.032 3.396 1.172 5.628 0.526 8.372-0.246 1.039-0.912 2.695-1.418 3.544-0.344 0.568-0.723 1.144-0.961 1.46-0.154 0.197-0.358 0.456-0.442 0.568-0.281 0.372-1.34 1.411-1.839 1.811-0.618 0.484-1.207 0.898-1.291 0.898-0.035 0-0.077 0.021-0.091 0.049-0.035 0.098-1.375 0.793-1.916 1.003-0.077 0.028-0.309 0.119-0.519 0.203-0.203 0.084-0.421 0.147-0.47 0.147-0.056 0-0.154 0.028-0.225 0.063-0.147 0.084-1.13 0.316-1.839 0.435-0.702 0.119-3.249 0.119-3.895 0-0.758-0.147-1.916-0.428-2.239-0.547-1.284-0.477-2.568-1.074-2.779-1.284-0.021-0.021-0.119-0.077-0.218-0.126-0.253-0.133-1.284-0.919-1.312-0.997-0.014-0.042-0.056-0.070-0.091-0.070-0.056 0-0.463-0.351-0.975-0.842-0.098-0.098-0.323-0.351-0.491-0.561-0.175-0.211-0.33-0.4-0.351-0.421-0.126-0.112-0.716-0.94-0.947-1.333-0.147-0.253-0.337-0.568-0.421-0.702-0.386-0.625-1.053-2.358-1.228-3.193-0.042-0.197-0.105-0.477-0.14-0.632-0.161-0.709-0.288-2.344-0.246-3.158 0.105-1.951 0.632-4.147 1.305-5.439 0.112-0.211 0.204-0.414 0.204-0.442 0-0.126 0.568-1.011 1.088-1.698 0.554-0.737 1.993-2.168 2.526-2.519 0.112-0.077 0.267-0.189 0.33-0.253 0.070-0.063 0.218-0.161 0.323-0.218s0.204-0.112 0.225-0.133c0.14-0.161 1.446-0.821 2.211-1.123 0.723-0.288 0.912-0.351 1.025-0.351 0.070 0 0.14-0.028 0.161-0.063s0.14-0.077 0.267-0.098c0.126-0.021 0.358-0.070 0.512-0.112 0.877-0.225 1.726-0.379 2.772-0.498 0.407-0.042 0.786-0.091 0.842-0.105 0.133-0.021-1.593-0.014-2.105 0.014z"></path>
<path d="M27.895 5.839c-0.309 0.028-0.772 0.091-1.039 0.126-0.26 0.042-0.688 0.070-0.954 0.070-0.744 0-1.193 0.105-1.937 0.456-0.933 0.442-1.537 1.439-1.628 2.681l-0.042 0.512h0.288c0.372 0 1.116-0.161 1.811-0.386 0.604-0.197 0.765-0.267 1.607-0.667 0.309-0.154 0.653-0.309 0.772-0.351l0.203-0.077-0.133 0.154c-0.133 0.147-0.66 0.554-1.137 0.884-0.351 0.239-1.347 0.688-1.881 0.849-0.267 0.077-0.765 0.182-1.102 0.232-0.344 0.049-0.618 0.105-0.618 0.133 0 0.070 0.288 0.428 0.491 0.611 0.526 0.47 1.726 0.589 2.779 0.267 1.193-0.365 2.253-1.333 2.933-2.688 0.421-0.835 0.758-1.754 0.947-2.625l0.063-0.267-0.435 0.014c-0.232 0-0.681 0.035-0.989 0.070z"></path>
<path d="M17.347 7.902c-0.218 0.147-0.295 0.323-0.821 1.789-0.253 0.709-0.589 1.635-0.744 2.063-0.316 0.891-0.365 1.389-0.133 1.509 0.182 0.098 0.358 0.042 0.547-0.161 0.154-0.161 1.256-2.933 1.593-3.986 0.211-0.674 0.225-1.046 0.049-1.207-0.161-0.147-0.288-0.147-0.491-0.007z"></path>
<path d="M12.372 8.632c-0.126 0.070-0.274 0.211-0.337 0.309-0.344 0.519-0.456 1.635-0.281 2.674 0.204 1.2 0.519 1.811 1.060 2.077 0.281 0.133 0.358 0.14 0.744 0.070 0.835-0.147 1.179-0.765 1.179-2.098 0-0.898-0.161-1.642-0.505-2.33-0.204-0.4-0.281-0.477-0.618-0.646-0.47-0.239-0.919-0.26-1.242-0.056zM13.193 9.263c0.351 0.189 0.919 2.919 0.744 3.607-0.098 0.407-0.73 0.084-0.94-0.484-0.154-0.414-0.253-1.207-0.26-2.091 0-0.814 0.014-0.912 0.133-1.004 0.168-0.119 0.154-0.119 0.323-0.028z"></path>
<path d="M9.207 9.102c-0.47 0.232-0.716 0.905-0.723 1.965-0.014 1.544 0.358 2.618 1.060 3.095 0.211 0.147 0.302 0.161 0.653 0.126 0.225-0.021 0.491-0.084 0.597-0.14 0.625-0.323 0.926-1.586 0.688-2.87-0.239-1.242-0.561-1.846-1.137-2.119-0.428-0.204-0.807-0.225-1.137-0.056zM10.239 10.211c0.344 0.87 0.646 2.961 0.47 3.249-0.105 0.175-0.442 0.091-0.667-0.161-0.337-0.386-0.505-1.2-0.526-2.498-0.007-0.905 0.049-1.067 0.372-1.032 0.147 0.014 0.211 0.091 0.351 0.442z"></path>
<path d="M15.256 9.158c-0.295 0.225-0.407 0.519-0.358 0.926 0.049 0.449 0.246 0.611 0.674 0.554 0.358-0.049 0.547-0.189 0.688-0.519 0.203-0.484-0.126-1.137-0.568-1.137-0.126 0-0.316 0.077-0.435 0.175zM15.902 10c-0.028 0.098-0.077 0.161-0.112 0.14-0.084-0.049-0.091-0.477-0.021-0.554 0.084-0.084 0.182 0.218 0.133 0.414z"></path>
<path d="M7.27 9.439c-0.189 0.204-0.954 1.656-0.954 1.811 0 0.26 0.393 0.182 0.639-0.119l0.119-0.147 0.042 0.175c0.021 0.098 0.098 0.709 0.182 1.368 0.175 1.418 0.225 1.649 0.463 1.93 0.182 0.211 0.449 0.274 0.646 0.147 0.14-0.084 0.232-0.568 0.154-0.849-0.035-0.133-0.175-0.975-0.309-1.86-0.393-2.519-0.379-2.463-0.575-2.554-0.232-0.105-0.218-0.105-0.407 0.098z"></path>
<path d="M17.446 10.807c-0.575 0.505-0.463 1.474 0.168 1.474 0.596 0 0.954-0.393 0.898-0.996-0.070-0.674-0.582-0.898-1.067-0.477zM18.105 11.432c0 0.154-0.028 0.302-0.070 0.323-0.042 0.028-0.070-0.084-0.070-0.274 0-0.175 0.035-0.323 0.070-0.323 0.042 0 0.070 0.126 0.070 0.274z"></path>
<path d="M22.667 13.825c-0.077 0.147-0.007 0.716 0.246 2.105 0.288 1.523 0.33 1.902 0.246 2.105-0.049 0.112-0.063 0.239-0.035 0.274 0.056 0.098 0.582 0.098 1.116 0 0.596-0.112 0.744-0.175 0.744-0.337 0-0.211-0.197-0.281-0.561-0.218-0.365 0.070-0.421 0.021-0.421-0.365 0-0.14-0.028-0.407-0.070-0.596-0.035-0.182-0.133-0.758-0.211-1.27-0.218-1.453-0.393-1.839-0.821-1.839-0.084 0-0.189 0.063-0.232 0.14z"></path>
<path d="M21.361 14.063c-0.028 0.077-0.133 0.112-0.365 0.112-0.407 0-0.807 0.26-1.011 0.653-0.337 0.66-0.33 2.323 0.014 2.975 0.316 0.611 1.053 0.744 1.368 0.253 0.077-0.126 0.161-0.225 0.182-0.232 0.028 0 0.175 0.126 0.33 0.281 0.253 0.253 0.316 0.281 0.632 0.281 0.442 0 0.491-0.098 0.182-0.421-0.274-0.288-0.47-0.947-0.554-1.825-0.098-1.144-0.316-2.105-0.463-2.105-0.028 0-0.098-0.021-0.161-0.042-0.070-0.028-0.126 0-0.154 0.070zM21.242 17.354c-0.049 0.203-0.119 0.358-0.161 0.358-0.035-0.007-0.126-0.098-0.203-0.203-0.126-0.168-0.14-0.295-0.14-1.249 0-1.179 0.028-1.34 0.26-1.593l0.161-0.168 0.084 1.242c0.077 1.025 0.077 1.312 0 1.614z"></path>
<path d="M18.386 14.435c-0.098 0.021-0.281 0.133-0.407 0.253-0.189 0.189-0.239 0.204-0.295 0.119-0.035-0.056-0.070-0.126-0.070-0.161 0-0.084-0.477-0.056-0.54 0.035-0.091 0.154-0.042 1.165 0.105 2.232 0.218 1.509 0.582 2.407 0.912 2.203 0.098-0.063 0.126-0.203 0.14-0.758 0.007-0.372 0.042-0.674 0.070-0.674s0.253 0.211 0.505 0.463c0.463 0.47 0.695 0.618 0.87 0.547 0.379-0.147-0.091-0.997-0.87-1.586l-0.246-0.182 0.253-0.274c0.14-0.147 0.309-0.365 0.365-0.477 0.449-0.912 0.014-1.874-0.793-1.74zM18.484 15.13c0.021 0.063 0.042 0.309 0.042 0.561 0 0.393-0.021 0.477-0.197 0.667-0.119 0.133-0.239 0.203-0.281 0.175-0.133-0.077-0.105-0.975 0.035-1.27 0.126-0.26 0.323-0.33 0.4-0.133z"></path>
<path d="M13.018 15.137c-0.491 0.056-1.516 0.33-1.586 0.421-0.14 0.161 0.056 0.302 0.428 0.302h0.337l0.077 0.575c0.042 0.323 0.126 1.053 0.189 1.621 0.14 1.361 0.33 1.874 0.667 1.874 0.161 0 0.414-0.358 0.414-0.596 0-0.105-0.077-0.73-0.175-1.389-0.091-0.667-0.182-1.446-0.189-1.733l-0.021-0.519 0.33-0.063c0.386-0.077 0.491-0.232 0.267-0.414-0.147-0.119-0.281-0.133-0.737-0.077z"></path>
<path d="M15.874 15.382c-0.112 0.112-0.105 0.519 0.028 1.397 0.105 0.709 0.105 1.768-0.007 2.049-0.035 0.077-0.112 0.119-0.204 0.105-0.225-0.035-0.435-0.653-0.561-1.705-0.154-1.263-0.232-1.565-0.435-1.698-0.14-0.091-0.189-0.091-0.281-0.014-0.197 0.161-0.225 0.365-0.161 1.046 0.204 2.077 0.414 2.667 1.025 2.87 0.232 0.077 0.316 0.077 0.533-0.021 0.14-0.056 0.295-0.182 0.344-0.281 0.098-0.225 0.154-0.225 0.393 0 0.337 0.323 0.786 0.421 0.786 0.175 0-0.077-0.028-0.154-0.063-0.175-0.126-0.084-0.295-0.73-0.498-1.993-0.26-1.551-0.358-1.839-0.625-1.839-0.105 0-0.225 0.035-0.274 0.084z"></path>
<path d="M10.316 15.789c0 0.035-0.112 0.070-0.26 0.070-0.309 0-0.8 0.274-1.004 0.561-0.421 0.589-0.463 2.421-0.077 3.144 0.168 0.309 0.491 0.505 0.856 0.505 0.323 0 0.351-0.014 0.526-0.295l0.182-0.288 0.239 0.281c0.182 0.218 0.309 0.302 0.519 0.337 0.512 0.084 0.716-0.091 0.414-0.358-0.309-0.274-0.547-1.13-0.653-2.379-0.063-0.723-0.189-1.312-0.316-1.488-0.112-0.154-0.428-0.225-0.428-0.091zM10.189 16.568c0.091 0.435 0.084 2.4-0.007 2.681-0.049 0.14-0.112 0.26-0.14 0.26s-0.126-0.154-0.211-0.337c-0.147-0.316-0.161-0.421-0.133-1.354 0.021-0.814 0.056-1.060 0.161-1.277 0.154-0.309 0.26-0.302 0.33 0.028z"></path>
<path d="M7.432 16.26c-0.014 0.161-0.014 0.091 0.035 0.863l0.049 0.667-0.197-0.218c-0.105-0.119-0.288-0.337-0.407-0.484-0.337-0.442-0.646-0.737-0.765-0.737-0.225 0-0.232 0.232-0.070 1.509 0.091 0.695 0.197 1.523 0.232 1.839 0.105 0.884 0.316 1.193 0.744 1.116 0.33-0.063 0.365-0.239 0.211-1.158-0.070-0.407-0.14-0.828-0.161-0.94-0.014-0.105 0-0.189 0.035-0.189 0.126 0 0.653 0.968 0.723 1.326 0.035 0.197 0.098 0.414 0.133 0.484 0.154 0.295 0.709 0.379 0.807 0.119 0.021-0.056 0.007-0.288-0.028-0.505-0.091-0.547-0.197-1.207-0.281-1.846-0.070-0.463-0.105-0.674-0.253-1.382-0.049-0.274-0.372-0.582-0.596-0.582-0.14 0-0.204 0.035-0.211 0.119z"></path>
<path d="M24.379 20.168c-0.203 0.203-0.239 0.288-0.239 0.582 0 0.267 0.049 0.421 0.239 0.723 0.639 1.011 0.674 1.088 0.66 1.333-0.014 0.189-0.049 0.246-0.161 0.246-0.126 0-0.175-0.091-0.288-0.505-0.028-0.119-0.218-0.042-0.253 0.105-0.056 0.211 0.084 0.568 0.26 0.688 0.4 0.26 1.067-0.119 1.137-0.646 0.042-0.344-0.063-0.575-0.568-1.228-0.421-0.54-0.604-0.982-0.463-1.151s0.288-0.126 0.372 0.105c0.049 0.126 0.126 0.203 0.189 0.197 0.154-0.035 0.161-0.203 0-0.463-0.197-0.323-0.554-0.316-0.884 0.014z"></path>
<path d="M22.891 20.225c-0.049 0.049-0.084 0.267-0.084 0.484 0 0.344-0.021 0.4-0.147 0.435-0.189 0.049-0.154 0.288 0.049 0.316 0.126 0.021 0.154 0.084 0.197 0.491 0.098 0.975 0.274 1.425 0.604 1.558 0.197 0.077 0.239 0.077 0.407-0.049 0.232-0.175 0.358-0.414 0.316-0.589-0.049-0.189-0.147-0.168-0.203 0.042-0.112 0.449-0.344-0.098-0.421-0.997-0.042-0.477-0.035-0.526 0.105-0.625 0.211-0.154 0.197-0.337-0.028-0.295-0.14 0.028-0.182 0.007-0.211-0.126-0.098-0.484-0.119-0.561-0.189-0.639-0.091-0.112-0.281-0.119-0.393-0.007z"></path>
<path d="M16.849 20.477c-0.042 0.070-0.042 0.323-0.007 0.646 0.035 0.288 0.063 0.632 0.070 0.751 0 0.218-0.014 0.232-0.246 0.232-0.463 0-0.947 0.73-0.947 1.439 0 0.358 0.204 0.933 0.372 1.053 0.428 0.302 1.025-0.070 1.039-0.646 0-0.161 0.028-0.133 0.14 0.175 0.175 0.442 0.4 0.625 0.625 0.505 0.098-0.056 0.133-0.119 0.105-0.197-0.112-0.295-0.253-1.067-0.421-2.288-0.211-1.579-0.225-1.642-0.386-1.726-0.189-0.098-0.267-0.084-0.344 0.056zM16.997 22.716c0.021 0.421-0.112 1.27-0.246 1.523-0.063 0.126-0.070 0.126-0.161-0.035-0.14-0.26-0.197-0.863-0.105-1.13 0.182-0.526 0.484-0.737 0.512-0.358z"></path>
<path d="M17.698 20.716c-0.189 0.189 0 0.688 0.267 0.688 0.147 0 0.351-0.253 0.351-0.435 0-0.133-0.253-0.337-0.421-0.337-0.063 0-0.147 0.035-0.197 0.084z"></path>
<path d="M20.456 20.8c-0.105 0.154-0.098 0.253 0.070 1.242 0.295 1.747 0.344 1.888 0.639 1.888 0.211 0 0.225-0.056 0.26-1.404 0.021-0.596 0.070-1.165 0.105-1.263 0.042-0.098 0.077-0.147 0.084-0.105 0.021 0.302 0.218 1.425 0.316 1.811 0.098 0.372 0.175 0.519 0.365 0.688 0.442 0.386 0.589 0.168 0.337-0.498-0.063-0.175-0.211-0.723-0.323-1.228-0.112-0.498-0.26-0.961-0.323-1.032-0.133-0.147-0.533-0.168-0.646-0.035-0.042 0.056-0.098 0.218-0.133 0.372l-0.056 0.274-0.049-0.281c-0.091-0.547-0.421-0.772-0.646-0.428z"></path>
<path d="M19.439 21.032c-0.575 0.211-0.87 1.319-0.596 2.246 0.133 0.442 0.309 0.667 0.639 0.828 0.218 0.098 0.302 0.105 0.526 0.042 0.302-0.091 0.554-0.365 0.554-0.611 0-0.267-0.126-0.26-0.239 0.007-0.197 0.47-0.646 0.267-0.814-0.372-0.049-0.182-0.098-0.386-0.119-0.449-0.021-0.091 0.056-0.161 0.281-0.267 0.526-0.246 0.814-1.060 0.484-1.354-0.126-0.112-0.498-0.147-0.716-0.070zM20.042 21.439c0.063 0.154-0.105 0.505-0.309 0.667-0.26 0.211-0.316 0.175-0.274-0.147 0.056-0.442 0.477-0.807 0.582-0.519z"></path>
<path d="M17.825 21.839c0.007 0.4 0.197 1.6 0.323 1.993 0.133 0.435 0.337 0.66 0.47 0.526 0.189-0.189-0.042-2.189-0.295-2.533-0.070-0.098-0.211-0.182-0.309-0.197-0.175-0.021-0.189 0-0.189 0.211z"></path>
<path d="M14.379 21.916c-0.182 0.119-0.274 0.26-0.393 0.611-0.182 0.526-0.197 0.877-0.063 1.368 0.14 0.54 0.281 0.758 0.604 0.94 0.526 0.295 1.123 0.014 1.123-0.519 0-0.309-0.154-0.302-0.211 0.007-0.028 0.161-0.077 0.211-0.232 0.225-0.274 0.035-0.449-0.147-0.575-0.568-0.161-0.547-0.14-0.632 0.175-0.765 0.547-0.232 0.807-0.997 0.449-1.347-0.161-0.161-0.597-0.14-0.877 0.049zM15.158 22.281c0 0.26-0.168 0.547-0.379 0.667-0.239 0.126-0.281 0.070-0.182-0.281 0.133-0.484 0.561-0.779 0.561-0.386z"></path>
<path d="M12.828 22.035c-0.211 0.218-0.218 0.218-0.316 0.070-0.056-0.077-0.161-0.14-0.232-0.14-0.281 0-0.295 0.218-0.105 1.418 0.295 1.853 0.351 2.014 0.653 1.923 0.253-0.084 0.295-0.33 0.189-1.067-0.056-0.379-0.105-0.863-0.105-1.088 0-0.421 0.175-0.926 0.309-0.884 0.042 0.014 0.105 0.189 0.14 0.386 0.035 0.218 0.098 0.365 0.147 0.365 0.112 0 0.246-0.365 0.246-0.66 0-0.547-0.519-0.723-0.926-0.323z"></path>
<path d="M10.807 22.189c-0.133 0.091-0.316 0.302-0.407 0.477-0.147 0.288-0.161 0.386-0.133 1.060 0.049 1.123 0.414 1.818 0.961 1.818 0.484 0 0.772-0.386 0.772-1.039 0-0.182 0.035-0.372 0.077-0.414 0.049-0.049 0.063-0.133 0.035-0.197-0.035-0.098-0.098-0.105-0.344-0.070-0.414 0.070-0.554 0.154-0.526 0.337 0.021 0.133 0.056 0.147 0.26 0.133l0.239-0.028-0.035 0.33c-0.070 0.589-0.246 0.589-0.54 0-0.225-0.442-0.295-1.579-0.119-1.916 0.126-0.246 0.323-0.295 0.463-0.119 0.112 0.133 0.182 0.133 0.239 0 0.056-0.147-0.239-0.449-0.484-0.498-0.154-0.028-0.281 0.007-0.456 0.126z"></path>
<path d="M7.102 22.4c-0.049 0.049-0.084 0.133-0.084 0.203 0 0.147 0.267 0.484 0.386 0.484 0.295 0 0.435-0.561 0.182-0.702-0.182-0.091-0.379-0.091-0.484 0.014z"></path>
<path d="M8.035 22.765c-0.105 0.154-0.098 0.253 0.070 1.242 0.295 1.747 0.344 1.888 0.639 1.888 0.211 0 0.225-0.056 0.26-1.404 0.042-1.361 0.133-1.67 0.253-0.87 0.112 0.744 0.288 1.495 0.4 1.726 0.133 0.267 0.421 0.47 0.597 0.428 0.161-0.042 0.154-0.119-0.042-0.653-0.063-0.175-0.204-0.702-0.316-1.172-0.232-1.025-0.33-1.214-0.66-1.214-0.281 0-0.372 0.091-0.449 0.463l-0.056 0.274-0.049-0.281c-0.091-0.547-0.421-0.772-0.646-0.428z"></path>
<path d="M7.305 23.291c-0.084 0.056-0.084 0.197 0.021 0.947 0.063 0.491 0.189 1.088 0.274 1.326 0.133 0.379 0.182 0.435 0.33 0.435 0.154 0 0.175-0.035 0.197-0.309 0.028-0.344-0.161-1.684-0.281-2.007-0.070-0.182-0.309-0.449-0.407-0.456-0.021 0-0.077 0.028-0.133 0.063z"></path>
</symbol>
<symbol id="icon-quality" viewBox="0 0 28 32">
<path d="M12.813 0.4c-0.588 0.2-1.15 0.675-1.7 1.425-0.875 1.188-1.425 1.362-2.988 0.975-1.013-0.263-1.787-0.163-2.487 0.3-1.063 0.712-1.462 1.65-1.325 3.087 0.125 1.388-0.275 2.075-1.563 2.65-1.325 0.588-1.925 1.463-1.925 2.787 0 0.963 0.275 1.563 1.050 2.313 0.288 0.275 0.6 0.65 0.7 0.838 0.288 0.55 0.212 1.362-0.2 2.25-0.475 0.988-0.5 1.775-0.075 2.663 0.487 1.025 1.4 1.688 2.35 1.688 0.225 0 0.475 0.050 0.55 0.1 0.1 0.063-0.338 1.225-1.337 3.587-0.887 2.075-1.462 3.575-1.413 3.712 0.1 0.337 0.475 0.288 2.475-0.4 1.013-0.337 1.9-0.625 1.987-0.625s0.55 0.85 1.025 1.887c0.488 1.038 0.938 1.938 1.025 2 0.387 0.337 0.575 0.012 1.975-3.262l1.4-3.313 0.55-0.288c0.675-0.35 1.050-0.35 1.725 0l0.55 0.288 1.4 3.313c1.775 4.175 1.613 4.1 2.962 1.35 0.525-1.087 1.038-1.975 1.125-1.975s0.975 0.288 1.962 0.625c1.962 0.675 2.337 0.738 2.438 0.4 0.050-0.137-0.525-1.637-1.413-3.712-1-2.363-1.438-3.525-1.337-3.587 0.075-0.050 0.325-0.1 0.55-0.1 0.95 0 1.863-0.663 2.35-1.688 0.425-0.887 0.4-1.675-0.075-2.663-0.413-0.887-0.488-1.7-0.2-2.25 0.1-0.188 0.413-0.563 0.7-0.838 0.775-0.75 1.050-1.35 1.050-2.313 0-1.325-0.6-2.2-1.925-2.787-1.288-0.575-1.688-1.263-1.563-2.65 0.137-1.438-0.262-2.375-1.325-3.087-0.7-0.462-1.475-0.563-2.488-0.3-1.563 0.388-2.113 0.212-2.988-0.975-0.575-0.775-1.125-1.225-1.75-1.438-0.512-0.163-1.313-0.163-1.825 0.013zM14.537 1.3c0.225 0.087 0.575 0.375 0.775 0.625 0.988 1.213 1.288 1.5 1.75 1.713 0.613 0.288 1.6 0.3 2.313 0.050 0.288-0.1 0.712-0.188 0.925-0.188 0.637 0 1.475 0.5 1.8 1.063 0.262 0.45 0.275 0.6 0.212 1.525-0.050 0.662-0.025 1.213 0.075 1.537 0.225 0.762 0.925 1.488 1.813 1.887 0.925 0.425 1.488 1.037 1.613 1.725 0.137 0.825-0.038 1.25-0.825 2.075-0.875 0.912-1.113 1.438-1.113 2.4 0 0.55 0.087 0.925 0.387 1.537 0.313 0.663 0.375 0.925 0.325 1.413-0.1 1.113-0.85 1.762-2.175 1.887-1.85 0.188-2.663 0.85-3.1 2.563-0.25 0.988-0.438 1.275-1.050 1.613-0.637 0.363-1.438 0.363-2.038-0.012-0.25-0.15-0.725-0.438-1.050-0.65-0.5-0.313-0.725-0.363-1.425-0.363s-0.925 0.050-1.425 0.363c-0.325 0.212-0.8 0.5-1.050 0.65-1.262 0.775-2.75 0.012-3.088-1.575-0.15-0.725-0.425-1.238-0.875-1.7-0.575-0.563-1.063-0.762-2.162-0.875-1.388-0.137-2.138-0.775-2.237-1.9-0.050-0.488 0.013-0.75 0.325-1.413 0.3-0.613 0.388-0.988 0.388-1.537 0-0.963-0.237-1.488-1.112-2.4-0.788-0.825-0.962-1.25-0.825-2.075 0.125-0.688 0.687-1.3 1.613-1.725 0.887-0.4 1.587-1.125 1.812-1.9 0.1-0.338 0.125-0.875 0.075-1.537-0.063-0.912-0.037-1.063 0.213-1.5 0.325-0.563 1.175-1.075 1.788-1.075 0.225 0 0.65 0.087 0.938 0.188 0.713 0.25 1.7 0.237 2.313-0.050 0.463-0.212 0.762-0.5 1.75-1.712 0.613-0.75 1.488-0.988 2.35-0.625zM6.875 22.275c0.2 0.275 0.375 0.575 0.375 0.663 0 0.475 0.45 1.512 0.85 1.962 0.6 0.663 1.275 0.975 2.188 0.975 0.387 0 0.713 0.025 0.713 0.063 0 0.113-1.662 4-1.762 4.113-0.050 0.063-0.463-0.663-0.912-1.6-0.688-1.462-0.85-1.7-1.1-1.7-0.162 0-0.975 0.238-1.813 0.525s-1.563 0.488-1.612 0.438c-0.125-0.125 2.362-5.95 2.538-5.962 0.088 0 0.325 0.238 0.537 0.525zM22.587 24.775c0.7 1.675 1.262 3.038 1.25 3.050s-0.75-0.225-1.637-0.525c-0.887-0.3-1.738-0.55-1.913-0.55-0.275 0-0.4 0.2-1.113 1.7-0.45 0.938-0.863 1.663-0.913 1.6-0.1-0.113-1.762-4-1.762-4.113 0-0.038 0.262-0.063 0.6-0.063 0.875 0 1.488-0.212 2.038-0.712 0.6-0.538 0.775-0.863 1.025-1.825 0.2-0.738 0.725-1.587 1-1.587 0.087 0 0.725 1.363 1.425 3.025z"></path>
<path d="M11.875 5.45c-1.688 0.45-3.4 1.575-4.325 2.825-1.2 1.625-1.6 2.85-1.6 4.787 0 1.563 0.2 2.4 0.875 3.7 0.85 1.625 2.588 3.125 4.313 3.738 1.1 0.387 3.35 0.488 4.488 0.2 2.65-0.663 4.9-2.825 5.675-5.438 1.238-4.225-1.375-8.7-5.738-9.825-0.925-0.237-2.775-0.237-3.688 0.013zM15.425 6.313c2.962 0.775 5.050 3.262 5.275 6.313 0.25 3.225-2 6.35-5.15 7.188-1.063 0.288-2.8 0.262-3.8-0.050-3.4-1.063-5.5-4.5-4.862-7.95 0.475-2.6 2.525-4.787 5.138-5.487 0.875-0.237 2.5-0.25 3.4-0.013z"></path>
<path d="M16.5 9.213c-0.325 0.125-0.613 0.425-2.162 2.213l-1.512 1.738-0.613-0.675c-0.35-0.375-0.775-0.775-0.95-0.887-0.65-0.438-1.7-0.162-2.088 0.55-0.213 0.363-0.213 1.075-0.012 1.438 0.275 0.5 2.625 3.050 2.975 3.225 0.475 0.25 1.1 0.238 1.5-0.038 0.35-0.225 4.225-4.7 4.638-5.338 0.563-0.875-0.063-2.15-1.1-2.25-0.262-0.037-0.575-0.025-0.675 0.025zM17.425 10.2c0.4 0.387 0.225 0.713-1.563 2.8-2.488 2.9-2.7 3.125-3.050 3.125-0.375 0-2.938-2.8-2.938-3.213 0-0.338 0.313-0.662 0.637-0.662 0.262 0 0.4 0.125 1.45 1.287 0.35 0.387 0.75 0.713 0.875 0.713 0.137 0 0.825-0.7 1.75-1.787 2-2.338 2.125-2.463 2.413-2.463 0.125 0 0.325 0.088 0.425 0.2z"></path>
</symbol>
<symbol id="icon-tradition" viewBox="0 0 32 32">
<path d="M14.62 1.031c-0.736 0.417-0.789 0.425-1.236 0.296-0.614-0.174-0.743-0.152-1.191 0.235l-0.402 0.349-1.282-0.091-0.432 0.463-0.432 0.47-0.561 0.030c-0.622 0.046-0.804 0.159-1.054 0.645-0.19 0.364-0.387 0.485-0.887 0.554-0.485 0.061-0.705 0.243-0.887 0.72-0.174 0.478-0.288 0.576-0.849 0.766-0.531 0.174-0.576 0.235-0.796 1.016-0.099 0.356-0.136 0.394-0.591 0.645-0.546 0.296-0.675 0.485-0.682 0.986-0.008 0.432-0.106 0.614-0.531 0.918-0.493 0.356-0.523 0.417-0.531 1.077v0.591l-0.387 0.417c-0.425 0.44-0.44 0.508-0.334 1.251 0.061 0.447 0.023 0.569-0.379 1.122-0.228 0.311-0.235 0.493-0.038 0.955s0.19 0.531-0.076 1.024c-0.288 0.538-0.288 0.698 0.015 1.266l0.25 0.47-0.174 0.478c-0.091 0.265-0.167 0.554-0.167 0.637 0 0.091 0.137 0.349 0.311 0.569 0.303 0.402 0.303 0.417 0.258 0.864-0.106 0.895-0.099 0.925 0.326 1.342l0.394 0.379v0.614c0 0.667-0.053 0.576 0.743 1.244 0.22 0.182 0.258 0.281 0.318 0.705 0.083 0.69 0.114 0.736 0.614 0.993 0.5 0.25 0.614 0.394 0.751 0.94 0.114 0.485 0.228 0.607 0.713 0.766 0.508 0.167 0.629 0.281 0.88 0.834 0.228 0.5 0.356 0.591 0.993 0.675 0.379 0.046 0.5 0.152 0.849 0.705 0.25 0.379 0.44 0.47 1.016 0.47 0.425 0 0.432 0.008 0.88 0.463l0.447 0.47 0.591-0.046c0.645-0.053 0.622-0.061 1.327 0.508 0.273 0.22 0.281 0.227 0.705 0.129 0.849-0.197 0.827-0.197 1.266 0.106 0.47 0.326 0.645 0.326 1.312 0.030l0.394-0.174 0.402 0.174c0.645 0.288 0.819 0.288 1.319-0.023 0.493-0.303 0.622-0.326 1.084-0.159 0.47 0.167 0.652 0.144 0.963-0.137 0.561-0.493 0.607-0.516 1.251-0.463l0.591 0.053 0.887-0.933h0.523c0.296 0 0.576-0.046 0.645-0.099s0.235-0.273 0.372-0.5c0.265-0.425 0.561-0.614 0.963-0.614 0.379 0 0.584-0.174 0.857-0.72 0.258-0.516 0.273-0.523 0.781-0.728 0.288-0.114 0.538-0.227 0.561-0.25s0.137-0.303 0.243-0.629c0.197-0.576 0.197-0.584 0.629-0.796 0.523-0.258 0.637-0.417 0.698-0.986 0.061-0.584 0.091-0.637 0.493-0.91 0.5-0.349 0.531-0.409 0.538-1.069v-0.584l0.425-0.463c0.47-0.508 0.447-0.417 0.288-1.395-0.038-0.273-0.015-0.349 0.265-0.72 0.356-0.478 0.379-0.675 0.159-1.312l-0.152-0.432 0.281-0.554 0.273-0.561-0.561-1.137 0.159-0.409c0.22-0.591 0.197-0.819-0.129-1.251-0.303-0.394-0.326-0.546-0.22-1.327l0.061-0.425-0.425-0.432-0.425-0.44v-0.607c0-0.584-0.008-0.614-0.235-0.811-0.766-0.652-0.751-0.629-0.796-1.107-0.061-0.576-0.174-0.751-0.622-0.978-0.478-0.243-0.584-0.379-0.728-0.918-0.129-0.508-0.288-0.675-0.751-0.804-0.47-0.121-0.629-0.265-0.811-0.705-0.205-0.516-0.409-0.698-0.834-0.766-0.584-0.083-0.736-0.182-0.978-0.614-0.281-0.478-0.409-0.561-0.918-0.561s-0.834-0.144-1.062-0.478c-0.296-0.432-0.5-0.516-1.153-0.463l-0.554 0.053-0.417-0.356c-0.455-0.387-0.629-0.425-1.244-0.235-0.432 0.129-0.569 0.106-1.016-0.212-0.387-0.281-0.682-0.296-1.137-0.061-0.372 0.19-0.698 0.205-1.016 0.038-0.485-0.25-0.645-0.258-0.986-0.061zM17.046 1.896c1.638 0.129 3.010 0.432 4.353 0.978 4.565 1.827 7.788 5.725 8.789 10.624 0.167 0.781 0.182 1.069 0.182 2.768-0.008 1.782-0.015 1.956-0.22 2.866-1.107 5.118-4.792 9.206-9.714 10.775-2.98 0.948-6.423 0.864-9.35-0.227-4.686-1.752-8.030-5.687-9.084-10.684-0.197-0.902-0.212-1.13-0.212-2.692-0.008-1.736 0.038-2.207 0.341-3.45 0.341-1.38 0.902-2.76 1.653-4.042 1.418-2.427 4.011-4.679 6.681-5.809 1.706-0.72 3.132-1.024 5.498-1.168 0.083-0.008 0.569 0.023 1.084 0.061z"></path>
<path d="M15.28 3.010c-1.213 0.076-2.601 0.379-3.799 0.819-1.881 0.705-3.397 1.721-4.891 3.283-3.791 3.958-4.686 9.865-2.237 14.809 1.774 3.572 5.179 6.218 8.993 6.999 1.623 0.326 3.663 0.349 5.209 0.053 5.604-1.069 9.911-5.725 10.563-11.42 0.834-7.31-4.656-13.953-11.996-14.521-0.91-0.068-1.069-0.076-1.843-0.023zM18.995 3.549c2.882 0.728 5.020 2.047 6.946 4.277 2.957 3.42 3.822 8.409 2.214 12.762-1.426 3.86-4.785 6.916-8.743 7.954-1.797 0.47-4.042 0.554-5.778 0.205-4.216-0.842-7.735-3.708-9.388-7.628-1.228-2.912-1.357-6.036-0.372-9.1 0.303-0.94 1.1-2.51 1.714-3.374 0.637-0.887 2.123-2.389 2.965-2.988 1.357-0.963 2.859-1.661 4.413-2.047 1.236-0.311 1.585-0.341 3.412-0.318 1.608 0.023 1.759 0.038 2.616 0.258z"></path>
<path d="M13.839 7.826c-0.015 0.099-0.046 0.311-0.053 0.478l-0.023 0.296-0.341-0.015c-0.334-0.023-0.356 0-0.842 0.493-0.281 0.281-0.645 0.591-0.811 0.69-0.281 0.152-0.318 0.159-0.425 0.046-0.144-0.136-0.144-0.205-0.046-0.554 0.106-0.379-0.008-0.538-0.402-0.538s-0.69 0.19-0.971 0.607c-0.258 0.387-0.349 0.781-0.227 1.031 0.159 0.349 0.516 0.334 0.94-0.038 0.227-0.205 0.258-0.212 0.394-0.106 0.205 0.152 0.675 0.083 0.971-0.136 0.174-0.129 0.22-0.136 0.182-0.046-0.023 0.068-0.008 0.227 0.030 0.356 0.061 0.167 0.129 0.227 0.265 0.227 0.318 0 0.675-0.197 0.955-0.523l0.273-0.318 0.076 0.227c0.099 0.288 0.372 0.364 0.682 0.205 0.129-0.068 0.311-0.121 0.402-0.121 0.129 0 0.144-0.023 0.076-0.106-0.061-0.076-0.068-0.121-0.008-0.159 0.076-0.046 0.106 0 0.182 0.356 0.068 0.303 0.356 0.47 0.705 0.402 0.205-0.038 0.402-0.174 0.743-0.516l0.463-0.47-0.076 0.44c-0.099 0.554-0.008 0.849 0.258 0.849 0.174 0 0.19-0.023 0.167-0.303-0.023-0.311 0.121-1.16 0.205-1.206 0.023-0.015 0.265-0.053 0.531-0.083l0.478-0.053-0.046 0.22c-0.076 0.326 0.068 0.872 0.273 1.031 0.235 0.19 0.607 0.121 0.978-0.174 0.334-0.265 0.372-0.273 0.372-0.091 0 0.197 0.152 0.318 0.394 0.318 0.5 0 0.986-0.372 1.084-0.827 0.038-0.19 0.091-0.22 0.394-0.265 0.19-0.023 0.387-0.076 0.432-0.114 0.061-0.053 0.083 0.083 0.083 0.47 0 0.5 0.015 0.546 0.159 0.569 0.121 0.015 0.243-0.068 0.417-0.296 0.144-0.167 0.349-0.417 0.455-0.546l0.205-0.235 0.053 0.334c0.061 0.372 0.167 0.614 0.296 0.698 0.235 0.159 0.751-0.030 1.183-0.44l0.19-0.174 0.25 0.227c0.296 0.273 0.281 0.372-0.046 0.523-0.174 0.083-0.235 0.159-0.227 0.265 0.038 0.258 0.379 0.235 0.698-0.038 0.379-0.341 0.372-0.614-0.030-1.024l-0.303-0.311 0.19-0.182c0.265-0.25 0.25-0.455-0.038-0.455-0.182 0-0.288 0.076-0.538 0.394-0.394 0.508-0.789 0.834-0.963 0.804-0.083-0.015-0.152-0.129-0.197-0.326-0.121-0.576-0.167-0.645-0.47-0.645-0.227 0-0.334 0.061-0.576 0.318-0.182 0.197-0.288 0.265-0.25 0.174 0.030-0.083 0.068-0.265 0.091-0.402 0.053-0.296-0.015-0.303-0.773-0.091l-0.523 0.152-0.167-0.159c-0.099-0.091-0.311-0.174-0.5-0.197-0.326-0.038-0.326-0.038-0.88 0.576-0.576 0.637-0.925 0.887-1.13 0.804-0.099-0.038-0.114-0.144-0.076-0.66l0.053-0.614-0.288 0.053c-0.152 0.023-0.493 0.068-0.758 0.099l-0.478 0.046 0.053-0.22c0.030-0.121 0.083-0.296 0.114-0.394 0.129-0.349 0.091-0.485-0.137-0.455-0.19 0.023-0.227 0.076-0.341 0.508-0.068 0.265-0.144 0.5-0.167 0.516-0.023 0.023-0.19 0.061-0.387 0.076-0.372 0.046-0.409 0.099-0.22 0.288 0.114 0.114 0.106 0.136-0.091 0.349-0.273 0.288-0.614 0.47-0.766 0.409-0.099-0.038-0.114-0.136-0.076-0.645 0.046-0.569 0.038-0.607-0.099-0.607-0.083 0-0.372 0.22-0.645 0.493-0.265 0.273-0.523 0.493-0.569 0.493-0.144 0-0.174-0.425-0.076-1.062 0.19-1.251 0.197-1.137-0.068-1.137-0.182 0-0.243 0.038-0.273 0.167zM13.437 9.228c0.015 0.205-0.038 0.311-0.311 0.591-0.281 0.296-0.538 0.432-0.538 0.303 0-0.25 0.667-1.297 0.766-1.198 0.030 0.038 0.068 0.174 0.083 0.303zM10.821 9.335c-0.061 0.463-0.736 1.107-0.736 0.713 0-0.273 0.523-1.024 0.705-1.024 0.038 0 0.053 0.136 0.030 0.311zM21.202 9.213c0.129 0.326-0.22 0.986-0.485 0.933-0.212-0.046-0.099-0.576 0.197-0.918 0.144-0.159 0.235-0.167 0.288-0.015z"></path>
<path d="M15.302 8.008c-0.076 0.159-0.068 0.205 0.023 0.265 0.281 0.174 0.599 0.023 0.599-0.288 0-0.152-0.038-0.174-0.265-0.174-0.212 0-0.288 0.038-0.356 0.197z"></path>
<path d="M18.791 8.008c-0.076 0.159-0.068 0.205 0.023 0.265 0.281 0.174 0.599 0.023 0.599-0.288 0-0.152-0.038-0.174-0.265-0.174-0.212 0-0.288 0.038-0.356 0.197z"></path>
<path d="M6.749 8.144c-0.038 0.099-0.091 0.296-0.114 0.44-0.076 0.394-0.136 0.455-0.523 0.493-0.379 0.046-0.417 0.099-0.22 0.288 0.076 0.083 0.205 0.114 0.341 0.099 0.197-0.030 0.22-0.015 0.182 0.121-0.030 0.091-0.068 0.349-0.091 0.584-0.061 0.508 0.053 0.773 0.296 0.736 0.144-0.023 0.167-0.061 0.144-0.326-0.023-0.311 0.121-1.16 0.205-1.206 0.023-0.015 0.258-0.053 0.516-0.083l0.478-0.053-0.023 0.751-0.015 0.743h0.22c0.197 0 0.235-0.046 0.341-0.341 0.25-0.728 0.584-1.062 1.039-1.062 0.159 0 0.19-0.030 0.167-0.174-0.046-0.334-0.811-0.235-1.115 0.144l-0.136 0.174 0.008-0.281c0.008-0.318 0.053-0.311-0.925-0.205l-0.554 0.061 0.053-0.22c0.030-0.121 0.083-0.296 0.114-0.394 0.121-0.326 0.083-0.47-0.121-0.47-0.136 0-0.212 0.053-0.265 0.182z"></path>
<path d="M15.333 12.572c-0.265 0.015-0.493 0.083-0.675 0.212-0.364 0.243-0.554 0.288-1.031 0.227-0.22-0.030-0.546-0.076-0.736-0.099-0.182-0.023-0.743 0.023-1.236 0.099-1.069 0.167-1.031 0.114-0.902 1.365 0.053 0.463 0.091 0.986 0.091 1.153s0.030 0.326 0.068 0.356c0.038 0.023 0.129 0.19 0.205 0.379 0.121 0.326 0.121 0.356 0 0.637-0.129 0.281-0.22 0.334-2.836 1.6-1.494 0.728-2.73 1.335-2.76 1.357-0.030 0.030-0.076 0.288-0.106 0.584l-0.053 0.538 0.349 0.318c0.19 0.174 0.334 0.364 0.311 0.409-0.015 0.053 0.652 0.736 1.486 1.517 1.077 1.016 1.6 1.456 1.782 1.501 0.159 0.046 0.265 0.121 0.265 0.19 0 0.197 0.44 0.576 1.319 1.13l0.819 0.523 0.584-0.311c0.318-0.167 2.502-1.304 4.861-2.525s4.861-2.525 5.573-2.889l1.289-0.667 0.121-0.516 0.129-0.516-0.25-0.341c-0.591-0.819-0.698-1.266-0.432-1.79 0.281-0.554 0.728-0.88 1.691-1.228 0.478-0.182 0.978-0.387 1.1-0.463 0.303-0.182 0.538-0.682 0.599-1.259 0.038-0.387 0.015-0.508-0.129-0.796-0.243-0.47-0.569-0.645-1.198-0.645-0.713 0.008-1.122 0.22-1.828 0.948-0.485 0.493-0.645 0.614-1.009 0.728-0.409 0.129-0.455 0.129-1.13-0.008-0.379-0.076-0.728-0.159-0.766-0.197-0.030-0.030-0.008-0.227 0.068-0.44 0.068-0.205 0.114-0.523 0.099-0.705l-0.023-0.326-0.455-0.053c-0.455-0.046-4.504-0.053-5.255 0zM20.269 12.732l0.447 0.046-0.789 0.334c-1.304 0.561-2.874 1.335-3.435 1.706-0.66 0.432-0.584 0.455 0.114 0.046 0.281-0.174 1.228-0.645 2.093-1.054 0.872-0.409 1.729-0.819 1.911-0.91l0.318-0.159v0.258c0 0.152-0.083 0.531-0.19 0.857-0.235 0.736-0.235 0.849-0.008 1.183 0.099 0.144 0.174 0.281 0.159 0.296-0.008 0.015-0.061 0.432-0.106 0.933s-0.121 1.168-0.167 1.479c-0.076 0.546-0.091 0.576-0.356 0.728-0.152 0.091-0.485 0.19-0.728 0.22-0.538 0.061-0.811 0.288-0.963 0.789-0.083 0.288-0.182 0.379-1.084 1.016-2.26 1.577-2.154 1.517-2.624 1.471-1.1-0.106-3.428-1.691-3.64-2.48-0.091-0.326-0.068-2.047 0.023-2.047 0.038 0 0.030-0.053-0.023-0.114-0.076-0.091-0.068-0.114 0.030-0.114 0.136 0 0.303-0.349 0.227-0.47-0.030-0.046-0.023-0.061 0.015-0.038 0.046 0.023 0.076-0.099 0.076-0.296 0.008-0.311-0.023-0.372-0.273-0.569-0.205-0.167-0.281-0.288-0.288-0.455 0-0.152 0.023-0.205 0.083-0.167 0.053 0.030 0.053 0-0.008-0.076-0.061-0.068-0.083-0.159-0.053-0.205 0.023-0.038 0.015-0.076-0.030-0.076-0.038 0-0.068-0.129-0.068-0.288 0.008-0.152-0.015-0.372-0.053-0.493-0.068-0.25 0.038-0.265 0.341-0.053 0.114 0.083 0.227 0.129 0.258 0.099 0.023-0.023 0.106 0.008 0.174 0.076 0.182 0.159 1.175 0.736 1.274 0.736 0.038 0-0.318-0.258-0.796-0.576-0.811-0.531-1.289-0.91-1.289-1.016 0-0.091 1.797-0.318 2.131-0.273 0.182 0.030 0.554 0.076 0.827 0.091 0.447 0.038 0.523 0.023 0.796-0.174 0.243-0.167 0.417-0.22 0.872-0.258 0.773-0.061 4.254-0.061 4.8 0zM26.267 12.929c0.311 0.152 0.5 0.478 0.5 0.872 0 0.682-0.372 1.039-1.441 1.365-1.297 0.402-1.691 0.66-2.047 1.35-0.137 0.265-0.167 0.409-0.129 0.766 0.038 0.425 0.334 1.137 0.675 1.623 0.083 0.121 0.137 0.227 0.121 0.243s-0.569 0.288-1.221 0.599c-0.66 0.318-1.342 0.675-1.524 0.804-0.561 0.379-2.51 1.365-2.715 1.365-0.106 0-0.326 0.099-0.5 0.22-0.167 0.129-0.5 0.326-0.751 0.447-0.243 0.129-0.918 0.5-1.501 0.842-0.584 0.334-1.13 0.614-1.213 0.614-0.182 0-0.629 0.227-1.714 0.88-0.447 0.265-0.842 0.485-0.88 0.485-0.046 0-0.129-0.061-0.205-0.144-0.159-0.174-0.061-0.265 0.463-0.425 0.409-0.121 1.084-0.599 1.084-0.766 0-0.144-0.015-0.137-0.432 0.121-0.197 0.121-0.584 0.273-0.849 0.334-0.273 0.061-0.554 0.182-0.645 0.265l-0.152 0.152-0.379-0.273c-0.212-0.152-0.417-0.303-0.447-0.326-0.030-0.030 0.197-0.22 0.508-0.425 0.318-0.205 0.576-0.417 0.576-0.47 0-0.129 0-0.129-0.827 0.281l-0.751 0.379-0.159-0.174c-0.121-0.129-0.152-0.227-0.114-0.409 0.053-0.273 0.046-0.281-0.296-0.137l-0.243 0.099-1.388-1.342c-0.758-0.743-1.38-1.38-1.38-1.426 0-0.038 0.19-0.318 0.417-0.614s0.394-0.538 0.372-0.538c-0.030 0-0.303 0.159-0.622 0.349-0.44 0.265-0.584 0.318-0.629 0.243-0.038-0.053-0.068-0.121-0.068-0.152 0-0.046 5.035-2.563 5.126-2.563 0.023 0 0.083 0.447 0.136 0.986 0.015 0.19 0 0.402-0.046 0.478-0.182 0.349 0.478 1.418 1.183 1.911 0.121 0.083 0.288 0.227 0.379 0.318 0.182 0.182 0.713 0.478 0.857 0.478 0.053 0 0.099 0.030 0.099 0.068 0 0.046 0.19 0.137 0.417 0.205 0.273 0.091 0.387 0.159 0.326 0.197-0.053 0.030 0.159 0.061 0.47 0.061h0.569l1.668-1.122c1.448-0.963 1.676-1.145 1.736-1.365 0.091-0.326 0.5-0.682 0.857-0.736 0.281-0.046 0.766-0.258 1.039-0.463 0.114-0.076 0.159-0.303 0.243-1.107 0.061-0.554 0.137-1.259 0.182-1.57 0.068-0.523 0.068-0.576-0.076-0.728-0.099-0.106-0.152-0.265-0.152-0.47v-0.303l0.591 0.136c1.221 0.296 1.805 0.129 2.555-0.72 0.561-0.629 1.024-0.88 1.653-0.88 0.243 0 0.554 0.053 0.69 0.114zM11.382 14.006c0.076 0.099 0.053 0.091-0.083-0.023-0.106-0.091-0.25-0.182-0.318-0.205-0.076-0.030-0.136-0.083-0.136-0.129 0-0.099 0.379 0.159 0.538 0.356zM26.449 15.029c-0.076 0.114-0.409 0.273-1.016 0.493-1.153 0.417-1.517 0.645-1.843 1.137-0.144 0.22-0.281 0.387-0.296 0.372-0.053-0.061 0.265-0.69 0.463-0.925 0.212-0.25 0.91-0.569 1.911-0.864 0.296-0.083 0.599-0.205 0.675-0.265 0.205-0.159 0.235-0.144 0.106 0.053zM23.924 19.693c-0.061 0.19-0.152 0.379-0.205 0.417-0.053 0.030-0.902 0.478-1.881 0.978-0.978 0.508-2.085 1.084-2.464 1.282-0.372 0.197-1.6 0.834-2.73 1.418-1.122 0.584-2.654 1.38-3.397 1.767-0.743 0.379-1.365 0.682-1.388 0.66-0.015-0.015 0.008-0.167 0.061-0.326 0.091-0.265 0.19-0.349 1.16-0.918 0.584-0.349 1.198-0.667 1.365-0.705 0.167-0.046 0.44-0.152 0.607-0.243 1.001-0.554 2.563-1.448 2.927-1.683 0.235-0.152 0.523-0.273 0.637-0.273 0.205 0 2.267-1.062 2.73-1.403 0.174-0.121 2.586-1.327 2.669-1.327 0.008 0-0.030 0.159-0.091 0.356zM6.188 20.497l-0.205 0.265 1.532 1.479c1.282 1.244 1.554 1.479 1.668 1.418 0.19-0.106 0.22-0.091 0.167 0.046-0.046 0.129 0.417 0.66 0.523 0.591 0.038-0.023 0.356 0.167 0.713 0.425l0.652 0.47 0.235-0.212c0.227-0.205 0.235-0.212 0.061-0.015l-0.174 0.197 0.235 0.22c0.227 0.212 0.227 0.212 0.129 0.576l-0.091 0.364-0.918-0.599c-0.69-0.455-0.925-0.652-0.963-0.811-0.038-0.144-0.144-0.243-0.394-0.349-0.394-0.182-3.086-2.684-3.124-2.919-0.015-0.076-0.182-0.281-0.372-0.455-0.334-0.296-0.341-0.318-0.288-0.629 0.045-0.296 0.061-0.311 0.182-0.205 0.114 0.106 0.152 0.099 0.349-0.023 0.129-0.076 0.243-0.129 0.258-0.114 0.008 0.008-0.068 0.137-0.174 0.281z"></path>
<path d="M13.536 15.28c0.083 0.061 0.19 0.136 0.227 0.174 0.046 0.038 0.144 0.046 0.212 0.023 0.114-0.046 0.083-0.076-0.136-0.182-0.326-0.159-0.516-0.167-0.303-0.015z"></path>
<path d="M14.976 15.234c-0.129 0.030-0.303 0.099-0.379 0.152-0.136 0.083-0.129 0.091 0.068 0.046 0.645-0.136 0.66-0.136 0.834 0.030 0.091 0.091 0.19 0.136 0.22 0.114 0.083-0.091-0.015 0.394-0.167 0.796-0.099 0.273-0.114 0.372-0.046 0.311 0.121-0.099 0.311-0.591 0.372-0.963 0.038-0.22 0.015-0.25-0.288-0.394-0.174-0.091-0.334-0.159-0.356-0.152-0.015 0.008-0.136 0.030-0.258 0.061z"></path>
<path d="M14.408 15.81c0 0.235 0.409 0.872 0.554 0.872 0.046 0 0.023-0.061-0.038-0.137-0.068-0.068-0.19-0.273-0.281-0.455-0.144-0.288-0.235-0.394-0.235-0.281z"></path>
<path d="M15.105 19.39c0.008 1.585 0.023 1.994 0.068 1.501 0.083-1.062 0.083-3.678-0.008-3.678-0.046 0-0.068 0.766-0.061 2.176z"></path>
<path d="M25.062 13.217c-0.288 0.167-0.645 0.591-0.645 0.773 0 0.053 0.068 0.182 0.159 0.296 0.129 0.167 0.212 0.197 0.531 0.197 0.637 0 1.13-0.379 1.13-0.872 0-0.531-0.584-0.728-1.175-0.394zM25.918 13.24c0.091 0.061 0.167 0.167 0.167 0.22 0 0.091-0.038 0.091-0.19 0.023-0.273-0.121-0.705 0.023-1.046 0.356-0.303 0.288-0.364 0.235-0.152-0.121 0.121-0.205 0.766-0.599 0.971-0.599 0.046 0 0.159 0.053 0.25 0.121zM25.964 13.619c0.47 0.182-0.531 0.887-1.062 0.758-0.235-0.061-0.227-0.197 0.030-0.44 0.364-0.341 0.698-0.447 1.031-0.318z"></path>
</symbol>
<symbol id="icon-locate" viewBox="0 0 32 32">
<path d="M26.354 10.425c0-6.332-4.062-10.425-10.354-10.425s-10.354 4.093-10.354 10.425c0 5.278 8.155 15.874 9.088 17.059l1.139 1.464c-4.771 0.012-8.618 0.69-8.618 1.526 0 0.843 3.918 1.526 8.751 1.526s8.751-0.683 8.751-1.526c0-0.836-3.852-1.514-8.627-1.526l1.146-1.464c0.924-1.193 9.079-11.789 9.079-17.059zM12.647 10.418c0-1.802 1.501-3.263 3.353-3.263s3.353 1.461 3.353 3.263-1.501 3.263-3.353 3.263c-1.852 0-3.353-1.461-3.353-3.263z"></path>
</symbol>
<symbol id="icon-phone" viewBox="0 0 32 32">
<path d="M31.555 26.609l-4.512 4.475c-0.666 0.683-1.549 0.914-2.408 0.915-3.802-0.114-7.396-1.981-10.346-3.899-4.843-3.523-9.287-7.892-12.076-13.172-1.070-2.214-2.325-5.039-2.205-7.51 0.011-0.93 0.261-1.842 0.916-2.441l4.512-4.509c0.937-0.797 1.843-0.521 2.442 0.407l3.63 6.883c0.382 0.815 0.163 1.689-0.407 2.272l-1.662 1.661c-0.103 0.141-0.168 0.301-0.17 0.475 0.637 2.467 2.568 4.741 4.274 6.306s3.539 3.685 5.919 4.187c0.294 0.082 0.655 0.111 0.865-0.085l1.934-1.966c0.667-0.505 1.629-0.752 2.341-0.339h0.034l6.547 3.865c0.961 0.602 1.061 1.767 0.373 2.475v0z"></path>
</symbol>
<symbol id="icon-mail" viewBox="0 0 36 32">
<path d="M33.050 26.325l-9.025-9.075 9.050-9.025v18.1h-0.025zM3.725 28.025l9.1-9.1 2 1.975c0.75 0.75 1.65 1.25 2.75 1.25s2-0.5 2.75-1.25l2-1.975 9.1 9.1h-27.7zM31.475 6.325l-12.975 13.025c-0.25 0.25-0.475 0.4-0.925 0.4s-0.675-0.15-0.925-0.4l-12.975-13.025h27.8zM2.1 8.225l9.050 9.025-9.050 9.075v-18.1z"></path>
</symbol>
<symbol id="icon-viber" viewBox="0 0 32 32">
<path d="M15.198 0.005c-2.568 0.031-8.089 0.453-11.177 3.286-2.297 2.276-3.099 5.641-3.193 9.802-0.078 4.146-0.172 11.932 7.333 14.052v3.229c0 0-0.047 1.292 0.807 1.557 1.052 0.333 1.651-0.661 2.651-1.729l1.865-2.109c5.135 0.427 9.068-0.557 9.521-0.703 1.042-0.333 6.911-1.083 7.87-8.87 0.984-8.042-0.479-13.109-3.12-15.401h-0.016c-0.797-0.734-4-3.068-11.156-3.094 0 0-0.531-0.036-1.385-0.021zM15.286 2.266c0.729-0.005 1.172 0.026 1.172 0.026 6.057 0.016 8.948 1.839 9.63 2.453 2.224 1.906 3.37 6.474 2.531 13.188-0.797 6.51-5.557 6.922-6.438 7.203-0.375 0.12-3.839 0.974-8.203 0.693 0 0-3.25 3.922-4.266 4.932-0.161 0.177-0.349 0.229-0.469 0.203-0.172-0.042-0.224-0.255-0.214-0.547l0.031-5.359c-6.365-1.76-5.99-8.401-5.922-11.87 0.078-3.469 0.729-6.307 2.667-8.229 2.609-2.359 7.297-2.677 9.479-2.693zM15.766 5.734c-0.219-0.005-0.401 0.177-0.401 0.396 0 0.224 0.182 0.401 0.401 0.401 2.005-0.036 3.938 0.724 5.375 2.12 1.453 1.411 2.161 3.307 2.188 5.786 0 0.219 0.177 0.401 0.401 0.401v-0.016c0.219 0 0.401-0.177 0.401-0.396 0.099-2.359-0.776-4.651-2.417-6.349-1.583-1.547-3.589-2.344-5.948-2.344zM10.495 6.651c-0.281-0.042-0.573 0.016-0.818 0.161h-0.021c-0.542 0.318-1.047 0.719-1.526 1.255-0.365 0.422-0.563 0.849-0.615 1.26-0.031 0.245-0.010 0.49 0.063 0.724l0.026 0.016c0.411 1.208 0.948 2.37 1.604 3.464 0.844 1.536 1.885 2.958 3.094 4.229l0.036 0.052 0.057 0.042 0.036 0.042 0.042 0.036c1.276 1.214 2.698 2.255 4.24 3.109 1.76 0.958 2.828 1.411 3.469 1.599v0.010c0.188 0.057 0.359 0.083 0.531 0.083 0.547-0.042 1.063-0.26 1.469-0.63 0.521-0.469 0.932-0.984 1.24-1.531v-0.010c0.307-0.578 0.203-1.125-0.24-1.495-0.885-0.776-1.849-1.464-2.865-2.057-0.682-0.37-1.375-0.146-1.656 0.229l-0.599 0.755c-0.307 0.375-0.865 0.323-0.865 0.323l-0.016 0.010c-4.161-1.063-5.271-5.276-5.271-5.276s-0.052-0.573 0.333-0.865l0.75-0.604c0.359-0.292 0.609-0.984 0.224-1.667-0.589-1.021-1.276-1.979-2.052-2.865-0.167-0.208-0.406-0.349-0.672-0.401zM16.458 7.839c-0.531 0-0.531 0.802 0.005 0.802 1.333 0.021 2.604 0.573 3.531 1.531 0.844 0.932 1.281 2.172 1.198 3.427 0.005 0.219 0.182 0.396 0.401 0.396l0.016 0.021c0.219 0 0.401-0.182 0.401-0.401 0.036-1.589-0.458-2.922-1.427-3.99-0.974-1.068-2.333-1.667-4.068-1.786-0.021 0-0.036 0-0.057 0zM17.115 9.995c-0.547-0.016-0.568 0.802-0.026 0.818 1.318 0.068 1.958 0.734 2.042 2.104 0.005 0.219 0.182 0.391 0.396 0.391h0.016c0.224-0.010 0.401-0.203 0.385-0.427-0.094-1.786-1.068-2.792-2.797-2.885-0.005 0-0.010 0-0.016 0z"></path>
</symbol>
<symbol id="icon-telegram" viewBox="0 0 32 32">
<path d="M16.546 14.329c-1.909 1.756-3.772 3.419-3.772 3.419-0.258 0.23-0.28 0.625-0.050 0.882s0.625 0.28 0.882 0.050c0 0 4.88-4.356 6.964-6.44 0.318-0.318 0.414-0.561 0.431-0.662 0.043-0.257-0.047-0.438-0.176-0.57-0.095-0.097-0.236-0.19-0.453-0.199-0.106-0.004-0.342 0.037-0.659 0.186-1.816 0.854-9.039 5.666-9.039 5.666-0.287 0.191-0.365 0.58-0.174 0.866s0.58 0.365 0.867 0.174c0 0 2.688-1.793 5.178-3.372z"></path>
<path d="M16 1.375c-8.072 0-14.625 6.553-14.625 14.625s6.553 14.625 14.625 14.625c8.072 0 14.625-6.553 14.625-14.625s-6.553-14.625-14.625-14.625zM16 2.625c7.382 0 13.375 5.993 13.375 13.375s-5.993 13.375-13.375 13.375c-7.382 0-13.375-5.993-13.375-13.375s5.993-13.375 13.375-13.375z"></path>
<path d="M10.52 17.676l1.337 4.35c0.005 0.016 0.010 0.032 0.016 0.047 0.142 0.357 0.285 0.565 0.387 0.663 0.185 0.178 0.374 0.219 0.531 0.215 0.221-0.007 0.577-0.138 0.718-0.662 0.010-0.038 0.017-0.077 0.020-0.117l0.202-2.784c0 0 5.282 3.885 5.282 3.885 0.543 0.412 1.031 0.499 1.4 0.387 0.381-0.116 0.75-0.466 0.925-1.21 0.001-0.004 0.002-0.009 0.003-0.013l2.607-12.286c0.155-0.654 0.068-1.143-0.145-1.429-0.247-0.332-0.713-0.558-1.506-0.344-0.021 0.005-0.043 0.013-0.063 0.021l-15.315 5.94c-0.024 0.009-0.047 0.020-0.069 0.032-0.726 0.39-0.887 0.835-0.889 1.123-0.003 0.388 0.27 0.764 0.732 0.95 0.014 0.006 0.027 0.011 0.042 0.015l3.783 1.217zM22.775 9.556c-0.006 0.089-0.018 0.21-0.042 0.312-0.002 0.005-0.003 0.011-0.004 0.016l-2.607 12.284c-0.022 0.091-0.065 0.195-0.095 0.259-0.069-0.034-0.18-0.092-0.259-0.153-0.003-0.002-0.006-0.004-0.009-0.007l-6.198-4.558c-0.183-0.135-0.425-0.159-0.632-0.064s-0.345 0.296-0.361 0.522l-0.113 1.548-0.836-2.719c-0.060-0.195-0.212-0.349-0.406-0.412l-3.623-1.166 15.063-5.842c0.041-0.009 0.084-0.016 0.122-0.021z"></path>
<path d="M13.202 22.796l2.717-2.346c0.261-0.225 0.29-0.62 0.065-0.881s-0.621-0.29-0.882-0.065l-2.717 2.346c-0.261 0.225-0.29 0.62-0.065 0.881s0.62 0.29 0.881 0.065z"></path>
</symbol>
<symbol id="icon-whatsapp" viewBox="0 0 32 32">
<path d="M31.68 15.597c0 8.436-6.892 15.276-15.396 15.276-2.699 0-5.234-0.69-7.44-1.899l-8.523 2.707 2.778-8.198c-1.401-2.301-2.208-5.003-2.208-7.886 0.001-8.436 6.891-15.276 15.395-15.276 8.503 0.002 15.394 6.84 15.394 15.277zM16.283 2.756c-7.137 0-12.942 5.761-12.942 12.844 0 2.81 0.916 5.412 2.465 7.528l-1.616 4.768 4.972-1.58c2.045 1.342 4.492 2.123 7.12 2.123 7.137 0 12.944-5.76 12.944-12.843 0.002-7.079-5.806-12.841-12.944-12.841zM24.059 19.115c-0.096-0.154-0.348-0.248-0.724-0.437-0.375-0.188-2.233-1.093-2.578-1.216-0.348-0.126-0.599-0.189-0.851 0.186-0.248 0.375-0.973 1.218-1.194 1.469-0.22 0.251-0.44 0.282-0.817 0.097-0.377-0.19-1.594-0.583-3.036-1.858-1.122-0.994-1.88-2.218-2.098-2.593-0.222-0.374-0.023-0.577 0.165-0.763 0.169-0.169 0.377-0.438 0.567-0.658 0.189-0.218 0.252-0.372 0.377-0.623 0.124-0.251 0.061-0.468-0.032-0.658-0.094-0.188-0.848-2.029-1.164-2.778-0.314-0.749-0.628-0.625-0.849-0.625-0.22 0-0.471-0.031-0.723-0.031s-0.661 0.091-1.005 0.466c-0.345 0.375-1.32 1.28-1.32 3.123 0 1.845 1.351 3.623 1.54 3.873 0.19 0.248 2.612 4.154 6.447 5.653 3.838 1.498 3.838 0.998 4.529 0.935 0.693-0.063 2.233-0.905 2.546-1.778 0.315-0.877 0.315-1.629 0.22-1.785z"></path>
</symbol>
<symbol id="icon-download" viewBox="0 0 32 32">
<path d="M16 18l8-8h-6v-8h-4v8h-6zM23.273 14.727l-2.242 2.242 8.128 3.031-13.158 4.907-13.158-4.907 8.127-3.031-2.242-2.242-8.727 3.273v8l16 6 16-6v-8z"></path>
</symbol>
<symbol id="icon-pencil" viewBox="0 0 32 32">
<path d="M12 20l4-2 14-14-2-2-14 14-2 4zM9.041 27.097c-0.989-2.085-2.052-3.149-4.137-4.137l3.097-8.525 4-2.435 12-12h-6l-12 12-6 20 20-6 12-12v-6l-12 12-2.435 4z"></path>
</symbol>
<symbol id="icon-arrow-up" viewBox="0 0 32 32">
<path d="M4.5 19.6l11.2-11.233c0.133-0.133 0.278-0.228 0.433-0.283s0.322-0.084 0.5-0.084c0.178 0 0.345 0.028 0.5 0.084s0.3 0.149 0.433 0.283l11.233 11.233c0.311 0.311 0.467 0.7 0.467 1.167s-0.167 0.867-0.5 1.2c-0.333 0.333-0.722 0.5-1.167 0.5s-0.833-0.167-1.167-0.5l-9.8-9.8-9.8 9.8c-0.311 0.311-0.694 0.467-1.149 0.467s-0.851-0.167-1.184-0.5-0.5-0.722-0.5-1.167c0-0.444 0.167-0.833 0.5-1.167z"></path>
</symbol>
</defs>
</svg>
